<mxfile host="app.diagrams.net" modified="2024-02-23T20:34:36.187Z" agent="Mozilla/5.0 (X11; Linux x86_64; rv:121.0) Gecko/20100101 Firefox/121.0" etag="qbct8Hije4b-WGO-lfhx" version="23.1.6" type="device">
  <diagram id="j7nF-TVUxBw4xUQn4cIl" name="Page-1">
    <mxGraphModel dx="1220" dy="199" grid="1" gridSize="10" guides="1" tooltips="1" connect="1" arrows="1" fold="1" page="1" pageScale="1" pageWidth="827" pageHeight="1169" math="0" shadow="0">
      <root>
        <mxCell id="0" />
        <mxCell id="1" parent="0" />
        <mxCell id="zm5g7ncn9EhyciJHYUPz-10" value="top_level.vhd" style="rounded=1;arcSize=3;whiteSpace=wrap;html=1;align=left;verticalAlign=top;fontFamily=Courier New;absoluteArcSize=0;fillColor=none;fontSize=10;spacingLeft=5;connectable=0;imageHeight=24;" parent="1" vertex="1">
          <mxGeometry x="840" y="440" width="420" height="300" as="geometry" />
        </mxCell>
        <mxCell id="nig3Wq-WDGFd4Grmrsc5-51" value="top_level.vhd" style="rounded=1;arcSize=3;whiteSpace=wrap;html=1;align=left;verticalAlign=top;fontFamily=Courier New;absoluteArcSize=0;fillColor=none;fontSize=10;spacingLeft=5;connectable=0;imageHeight=24;" parent="1" vertex="1">
          <mxGeometry x="854.59" y="50" width="399.36" height="280" as="geometry" />
        </mxCell>
        <mxCell id="N4TtajftBBADn4jUO-1_-67" value="adder_4bit.vhd" style="rounded=1;arcSize=3;whiteSpace=wrap;html=1;align=right;verticalAlign=top;fontFamily=Courier New;absoluteArcSize=0;fillColor=none;fontSize=10;spacingLeft=45;connectable=0;imageHeight=24;spacingRight=5;" parent="1" vertex="1">
          <mxGeometry x="740" y="880" width="770" height="170" as="geometry" />
        </mxCell>
        <mxCell id="3X3M70Q2T5t_4ZY13hNR-58" value="full_adder.vhd" style="rounded=1;arcSize=3;whiteSpace=wrap;html=1;align=left;verticalAlign=top;fontFamily=Courier New;absoluteArcSize=0;fillColor=none;fontSize=10;spacingLeft=5;connectable=0;imageHeight=24;" parent="1" vertex="1">
          <mxGeometry y="900" width="340" height="200" as="geometry" />
        </mxCell>
        <mxCell id="N4TtajftBBADn4jUO-1_-4" value="full_adder.vhd" style="rounded=1;arcSize=3;whiteSpace=wrap;html=1;align=left;verticalAlign=top;fontFamily=Courier New;absoluteArcSize=0;fillColor=none;fontSize=10;spacingLeft=5;connectable=0;imageHeight=24;" parent="1" vertex="1">
          <mxGeometry y="680" width="270" height="180" as="geometry" />
        </mxCell>
        <mxCell id="nig3Wq-WDGFd4Grmrsc5-3" value="top_level.vhd" style="rounded=1;arcSize=3;whiteSpace=wrap;html=1;align=left;verticalAlign=top;fontFamily=Courier New;absoluteArcSize=0;fillColor=none;fontSize=10;spacingLeft=5;connectable=0;imageHeight=24;" parent="1" vertex="1">
          <mxGeometry x="120" y="50" width="320" height="220" as="geometry" />
        </mxCell>
        <mxCell id="nig3Wq-WDGFd4Grmrsc5-7" value="bin2seg.vhd" style="rounded=1;arcSize=10;align=left;verticalAlign=top;fontFamily=Courier New;absoluteArcSize=0;fillColor=none;points=[[0,0,0,0,0],[0,0.25,0,0,0],[0,0.5,0,0,0],[0,0.75,0,0,0],[0,1,0,0,0],[0.25,0,0,0,0],[0.25,1,0,0,0],[0.5,0,0,0,0],[0.5,1,0,0,0],[0.75,0,0,0,0],[0.75,1,0,0,0],[1,0,0,0,0],[1,0.25,0,0,0],[1,0.5,0,0,0],[1,0.75,0,0,0],[1,1,0,0,0]];connectable=0;snapToPoint=0;fixDash=0;metaEdit=0;autosize=0;fontSize=10;spacingLeft=5;labelBorderColor=none;spacingTop=0;spacing=2;labelBackgroundColor=none;whiteSpace=wrap;html=1;strokeWidth=1;shadow=0;glass=0;" parent="1" vertex="1">
          <mxGeometry x="200" y="90" width="120" height="80" as="geometry" />
        </mxCell>
        <mxCell id="nig3Wq-WDGFd4Grmrsc5-8" value="&lt;div style=&quot;line-height: 100%;&quot; align=&quot;left&quot;&gt;bin(3:0)&lt;/div&gt;" style="text;html=1;align=left;verticalAlign=middle;whiteSpace=wrap;rounded=0;fontFamily=Courier New;fontSize=10;fillOpacity=100;spacingLeft=5;connectable=0;" parent="1" vertex="1">
          <mxGeometry x="200" y="140" width="60" height="20" as="geometry" />
        </mxCell>
        <mxCell id="nig3Wq-WDGFd4Grmrsc5-9" value="clear" style="text;html=1;align=left;verticalAlign=middle;whiteSpace=wrap;rounded=0;fontFamily=Courier New;fontSize=10;fillOpacity=100;spacing=2;spacingLeft=5;connectable=0;" parent="1" vertex="1">
          <mxGeometry x="200" y="120" width="60" height="20" as="geometry" />
        </mxCell>
        <mxCell id="nig3Wq-WDGFd4Grmrsc5-10" value="&lt;div style=&quot;line-height: 100%;&quot;&gt;seg(6:0)&lt;/div&gt;" style="text;html=1;align=right;verticalAlign=middle;whiteSpace=wrap;rounded=0;fontFamily=Courier New;fontSize=10;fillOpacity=100;spacing=2;spacingRight=5;connectable=0;" parent="1" vertex="1">
          <mxGeometry x="260" y="120" width="60" height="20" as="geometry" />
        </mxCell>
        <mxCell id="nig3Wq-WDGFd4Grmrsc5-11" value="" style="endArrow=block;html=1;rounded=0;exitX=1;exitY=0.5;exitDx=0;exitDy=0;endFill=1;endSize=5;startSize=5;" parent="1" source="nig3Wq-WDGFd4Grmrsc5-10" edge="1">
          <mxGeometry width="50" height="50" relative="1" as="geometry">
            <mxPoint x="400" y="270" as="sourcePoint" />
            <mxPoint x="480" y="130" as="targetPoint" />
          </mxGeometry>
        </mxCell>
        <mxCell id="nig3Wq-WDGFd4Grmrsc5-14" value="" style="endArrow=block;html=1;rounded=0;exitX=1;exitY=0.5;exitDx=0;exitDy=0;endFill=1;endSize=5;startSize=5;" parent="1" edge="1">
          <mxGeometry width="50" height="50" relative="1" as="geometry">
            <mxPoint x="120" y="130" as="sourcePoint" />
            <mxPoint x="200" y="130" as="targetPoint" />
          </mxGeometry>
        </mxCell>
        <mxCell id="nig3Wq-WDGFd4Grmrsc5-15" value="" style="endArrow=block;html=1;rounded=0;exitX=1;exitY=0.5;exitDx=0;exitDy=0;endFill=1;endSize=5;startSize=5;" parent="1" edge="1">
          <mxGeometry width="50" height="50" relative="1" as="geometry">
            <mxPoint x="120" y="150" as="sourcePoint" />
            <mxPoint x="200" y="150" as="targetPoint" />
          </mxGeometry>
        </mxCell>
        <mxCell id="nig3Wq-WDGFd4Grmrsc5-17" value="" style="endArrow=block;html=1;rounded=0;endFill=1;endSize=5;startSize=5;" parent="1" edge="1">
          <mxGeometry width="50" height="50" relative="1" as="geometry">
            <mxPoint x="390" y="140" as="sourcePoint" />
            <mxPoint x="480" y="140" as="targetPoint" />
          </mxGeometry>
        </mxCell>
        <mxCell id="nig3Wq-WDGFd4Grmrsc5-18" value="" style="endArrow=block;html=1;rounded=0;endFill=1;orthogonal=1;endSize=5;startSize=5;" parent="1" edge="1">
          <mxGeometry width="50" height="50" relative="1" as="geometry">
            <mxPoint x="390" y="150" as="sourcePoint" />
            <mxPoint x="480" y="150" as="targetPoint" />
          </mxGeometry>
        </mxCell>
        <mxCell id="nig3Wq-WDGFd4Grmrsc5-19" value="" style="endArrow=block;html=1;rounded=0;endFill=1;orthogonal=1;endSize=5;startSize=5;" parent="1" edge="1">
          <mxGeometry width="50" height="50" relative="1" as="geometry">
            <mxPoint x="400" y="160" as="sourcePoint" />
            <mxPoint x="480" y="160" as="targetPoint" />
          </mxGeometry>
        </mxCell>
        <mxCell id="nig3Wq-WDGFd4Grmrsc5-20" value="" style="endArrow=block;html=1;rounded=0;endFill=1;endSize=5;startSize=5;" parent="1" edge="1">
          <mxGeometry width="50" height="50" relative="1" as="geometry">
            <mxPoint x="390" y="120" as="sourcePoint" />
            <mxPoint x="480" y="120" as="targetPoint" />
          </mxGeometry>
        </mxCell>
        <mxCell id="nig3Wq-WDGFd4Grmrsc5-21" value="" style="endArrow=block;html=1;rounded=0;endFill=1;endSize=5;startSize=5;" parent="1" edge="1">
          <mxGeometry width="50" height="50" relative="1" as="geometry">
            <mxPoint x="390" y="110" as="sourcePoint" />
            <mxPoint x="480" y="110" as="targetPoint" />
          </mxGeometry>
        </mxCell>
        <mxCell id="nig3Wq-WDGFd4Grmrsc5-22" value="" style="endArrow=block;html=1;rounded=0;endFill=1;endSize=5;startSize=5;" parent="1" edge="1">
          <mxGeometry width="50" height="50" relative="1" as="geometry">
            <mxPoint x="400" y="100" as="sourcePoint" />
            <mxPoint x="480" y="100" as="targetPoint" />
          </mxGeometry>
        </mxCell>
        <mxCell id="nig3Wq-WDGFd4Grmrsc5-23" value="" style="endArrow=none;html=1;rounded=1;curved=0;anchorPointDirection=1;movable=1;resizable=1;rotatable=1;deletable=1;editable=1;locked=0;connectable=1;startFill=1;endFill=1;snapToPoint=0;fixDash=0;ignoreEdge=0;orthogonal=1;jumpStyle=none;shadow=0;" parent="1" edge="1">
          <mxGeometry width="50" height="50" relative="1" as="geometry">
            <mxPoint x="390" y="110" as="sourcePoint" />
            <mxPoint x="400" y="100" as="targetPoint" />
            <Array as="points">
              <mxPoint x="390" y="100" />
            </Array>
          </mxGeometry>
        </mxCell>
        <mxCell id="nig3Wq-WDGFd4Grmrsc5-25" value="" style="endArrow=none;html=1;rounded=0;" parent="1" edge="1">
          <mxGeometry width="50" height="50" relative="1" as="geometry">
            <mxPoint x="390" y="150" as="sourcePoint" />
            <mxPoint x="390" y="110" as="targetPoint" />
          </mxGeometry>
        </mxCell>
        <mxCell id="nig3Wq-WDGFd4Grmrsc5-26" value="" style="endArrow=none;html=1;rounded=1;curved=0;" parent="1" edge="1">
          <mxGeometry width="50" height="50" relative="1" as="geometry">
            <mxPoint x="390" y="150" as="sourcePoint" />
            <mxPoint x="400" y="160" as="targetPoint" />
            <Array as="points">
              <mxPoint x="390" y="160" />
            </Array>
          </mxGeometry>
        </mxCell>
        <mxCell id="nig3Wq-WDGFd4Grmrsc5-27" value="" style="endArrow=block;html=1;rounded=0;endFill=1;endSize=5;startSize=5;" parent="1" edge="1">
          <mxGeometry width="50" height="50" relative="1" as="geometry">
            <mxPoint x="90" y="150" as="sourcePoint" />
            <mxPoint x="120" y="150" as="targetPoint" />
          </mxGeometry>
        </mxCell>
        <mxCell id="nig3Wq-WDGFd4Grmrsc5-31" value="" style="endArrow=block;html=1;rounded=0;endFill=1;endSize=5;startSize=5;" parent="1" edge="1">
          <mxGeometry width="50" height="50" relative="1" as="geometry">
            <mxPoint x="80" y="130" as="sourcePoint" />
            <mxPoint x="120" y="130" as="targetPoint" />
          </mxGeometry>
        </mxCell>
        <mxCell id="nig3Wq-WDGFd4Grmrsc5-33" value="BTNC" style="text;html=1;align=left;verticalAlign=middle;whiteSpace=wrap;rounded=0;fontFamily=Courier New;fontSize=10;fillOpacity=100;spacing=2;spacingLeft=0;connectable=0;" parent="1" vertex="1">
          <mxGeometry x="40" y="120" width="40" height="20" as="geometry" />
        </mxCell>
        <mxCell id="nig3Wq-WDGFd4Grmrsc5-34" value="SW(3:0)" style="text;html=1;align=left;verticalAlign=middle;whiteSpace=wrap;rounded=0;fontFamily=Courier New;fontSize=10;fillOpacity=100;spacing=2;spacingLeft=0;connectable=0;" parent="1" vertex="1">
          <mxGeometry x="40" y="140" width="40" height="20" as="geometry" />
        </mxCell>
        <mxCell id="nig3Wq-WDGFd4Grmrsc5-35" value="CA" style="text;html=1;align=left;verticalAlign=middle;whiteSpace=wrap;rounded=0;fontFamily=Courier New;fontSize=10;fillOpacity=100;spacing=2;spacingLeft=5;connectable=0;" parent="1" vertex="1">
          <mxGeometry x="480" y="90" width="30" height="20" as="geometry" />
        </mxCell>
        <mxCell id="nig3Wq-WDGFd4Grmrsc5-36" value="CB" style="text;html=1;align=left;verticalAlign=middle;whiteSpace=wrap;rounded=0;fontFamily=Courier New;fontSize=10;fillOpacity=100;spacing=2;spacingLeft=5;connectable=0;" parent="1" vertex="1">
          <mxGeometry x="480" y="100" width="30" height="20" as="geometry" />
        </mxCell>
        <mxCell id="nig3Wq-WDGFd4Grmrsc5-37" value="CC" style="text;html=1;align=left;verticalAlign=middle;whiteSpace=wrap;rounded=0;fontFamily=Courier New;fontSize=10;fillOpacity=100;spacing=2;spacingLeft=5;connectable=0;" parent="1" vertex="1">
          <mxGeometry x="480" y="110" width="30" height="20" as="geometry" />
        </mxCell>
        <mxCell id="nig3Wq-WDGFd4Grmrsc5-38" value="CD" style="text;html=1;align=left;verticalAlign=middle;whiteSpace=wrap;rounded=0;fontFamily=Courier New;fontSize=10;fillOpacity=100;spacing=2;spacingLeft=5;connectable=0;" parent="1" vertex="1">
          <mxGeometry x="480" y="120" width="30" height="20" as="geometry" />
        </mxCell>
        <mxCell id="nig3Wq-WDGFd4Grmrsc5-39" value="CE" style="text;html=1;align=left;verticalAlign=middle;whiteSpace=wrap;rounded=0;fontFamily=Courier New;fontSize=10;fillOpacity=100;spacing=2;spacingLeft=5;connectable=0;" parent="1" vertex="1">
          <mxGeometry x="480" y="130" width="30" height="20" as="geometry" />
        </mxCell>
        <mxCell id="nig3Wq-WDGFd4Grmrsc5-40" value="CF" style="text;html=1;align=left;verticalAlign=middle;whiteSpace=wrap;rounded=0;fontFamily=Courier New;fontSize=10;fillOpacity=100;spacing=2;spacingLeft=5;connectable=0;" parent="1" vertex="1">
          <mxGeometry x="480" y="140" width="30" height="20" as="geometry" />
        </mxCell>
        <mxCell id="nig3Wq-WDGFd4Grmrsc5-41" value="CG" style="text;html=1;align=left;verticalAlign=middle;whiteSpace=wrap;rounded=0;fontFamily=Courier New;fontSize=10;fillOpacity=100;spacing=2;spacingLeft=5;connectable=0;" parent="1" vertex="1">
          <mxGeometry x="480" y="150" width="30" height="20" as="geometry" />
        </mxCell>
        <mxCell id="nig3Wq-WDGFd4Grmrsc5-45" value="" style="endArrow=block;html=1;rounded=0;endFill=1;orthogonal=1;endSize=5;startSize=5;" parent="1" edge="1">
          <mxGeometry width="50" height="50" relative="1" as="geometry">
            <mxPoint x="170" y="200" as="sourcePoint" />
            <mxPoint x="480" y="200" as="targetPoint" />
          </mxGeometry>
        </mxCell>
        <mxCell id="nig3Wq-WDGFd4Grmrsc5-46" value="" style="endArrow=none;html=1;rounded=0;startArrow=oval;startFill=1;endSize=4;startSize=4;" parent="1" edge="1">
          <mxGeometry width="50" height="50" relative="1" as="geometry">
            <mxPoint x="170" y="150" as="sourcePoint" />
            <mxPoint x="170" y="200" as="targetPoint" />
          </mxGeometry>
        </mxCell>
        <mxCell id="nig3Wq-WDGFd4Grmrsc5-47" value="LED(3:0)" style="text;html=1;align=left;verticalAlign=middle;whiteSpace=wrap;rounded=0;fontFamily=Courier New;fontSize=10;fillOpacity=100;spacing=2;spacingLeft=5;connectable=0;" parent="1" vertex="1">
          <mxGeometry x="480" y="190" width="30" height="20" as="geometry" />
        </mxCell>
        <mxCell id="nig3Wq-WDGFd4Grmrsc5-48" value="" style="endArrow=block;html=1;rounded=0;endFill=1;orthogonal=1;endSize=5;startSize=5;" parent="1" edge="1">
          <mxGeometry width="50" height="50" relative="1" as="geometry">
            <mxPoint x="400" y="240" as="sourcePoint" />
            <mxPoint x="480" y="240" as="targetPoint" />
          </mxGeometry>
        </mxCell>
        <mxCell id="nig3Wq-WDGFd4Grmrsc5-49" value="b&quot;1111_1110&quot;" style="text;html=1;align=left;verticalAlign=middle;whiteSpace=wrap;rounded=0;fontFamily=Courier New;fontSize=10;fillOpacity=100;spacing=2;spacingLeft=0;connectable=0;" parent="1" vertex="1">
          <mxGeometry x="320" y="230" width="80" height="20" as="geometry" />
        </mxCell>
        <mxCell id="nig3Wq-WDGFd4Grmrsc5-50" value="AN(7:0)" style="text;html=1;align=left;verticalAlign=middle;whiteSpace=wrap;rounded=0;fontFamily=Courier New;fontSize=10;fillOpacity=100;spacing=2;spacingLeft=5;connectable=0;" parent="1" vertex="1">
          <mxGeometry x="480" y="230" width="30" height="20" as="geometry" />
        </mxCell>
        <mxCell id="nig3Wq-WDGFd4Grmrsc5-53" value="bin2seg.vhd" style="rounded=1;arcSize=10;align=left;verticalAlign=top;fontFamily=Courier New;absoluteArcSize=0;fillColor=none;points=[[0,0,0,0,0],[0,0.25,0,0,0],[0,0.5,0,0,0],[0,0.75,0,0,0],[0,1,0,0,0],[0.25,0,0,0,0],[0.25,1,0,0,0],[0.5,0,0,0,0],[0.5,1,0,0,0],[0.75,0,0,0,0],[0.75,1,0,0,0],[1,0,0,0,0],[1,0.25,0,0,0],[1,0.5,0,0,0],[1,0.75,0,0,0],[1,1,0,0,0]];connectable=0;snapToPoint=0;fixDash=0;metaEdit=0;autosize=0;fontSize=10;spacingLeft=5;labelBorderColor=none;spacingTop=0;spacing=2;labelBackgroundColor=none;whiteSpace=wrap;html=1;strokeWidth=1;shadow=0;glass=0;" parent="1" vertex="1">
          <mxGeometry x="1013.95" y="90" width="120" height="80" as="geometry" />
        </mxCell>
        <mxCell id="nig3Wq-WDGFd4Grmrsc5-54" value="&lt;div style=&quot;line-height: 100%;&quot; align=&quot;left&quot;&gt;bin(3:0)&lt;/div&gt;" style="text;html=1;align=left;verticalAlign=middle;whiteSpace=wrap;rounded=0;fontFamily=Courier New;fontSize=10;fillOpacity=100;spacingLeft=5;connectable=0;" parent="1" vertex="1">
          <mxGeometry x="1013.95" y="140" width="60" height="20" as="geometry" />
        </mxCell>
        <mxCell id="nig3Wq-WDGFd4Grmrsc5-55" value="clear" style="text;html=1;align=left;verticalAlign=middle;whiteSpace=wrap;rounded=0;fontFamily=Courier New;fontSize=10;fillOpacity=100;spacing=2;spacingLeft=5;connectable=0;" parent="1" vertex="1">
          <mxGeometry x="1013.95" y="120" width="60" height="20" as="geometry" />
        </mxCell>
        <mxCell id="nig3Wq-WDGFd4Grmrsc5-56" value="&lt;div style=&quot;line-height: 100%;&quot;&gt;seg(6:0)&lt;/div&gt;" style="text;html=1;align=right;verticalAlign=middle;whiteSpace=wrap;rounded=0;fontFamily=Courier New;fontSize=10;fillOpacity=100;spacing=2;spacingRight=5;connectable=0;" parent="1" vertex="1">
          <mxGeometry x="1073.95" y="120" width="60" height="20" as="geometry" />
        </mxCell>
        <mxCell id="nig3Wq-WDGFd4Grmrsc5-57" value="" style="endArrow=block;html=1;rounded=0;exitX=1;exitY=0.5;exitDx=0;exitDy=0;endFill=1;endSize=5;startSize=5;" parent="1" source="nig3Wq-WDGFd4Grmrsc5-56" edge="1">
          <mxGeometry width="50" height="50" relative="1" as="geometry">
            <mxPoint x="1213.95" y="270" as="sourcePoint" />
            <mxPoint x="1294.5900000000001" y="130" as="targetPoint" />
          </mxGeometry>
        </mxCell>
        <mxCell id="nig3Wq-WDGFd4Grmrsc5-58" value="" style="endArrow=block;html=1;rounded=0;endFill=1;endSize=5;startSize=5;" parent="1" edge="1">
          <mxGeometry width="50" height="50" relative="1" as="geometry">
            <mxPoint x="854.59" y="130" as="sourcePoint" />
            <mxPoint x="1013.95" y="130" as="targetPoint" />
          </mxGeometry>
        </mxCell>
        <mxCell id="nig3Wq-WDGFd4Grmrsc5-59" value="" style="endArrow=block;html=1;rounded=0;endFill=1;endSize=5;startSize=5;" parent="1" edge="1">
          <mxGeometry width="50" height="50" relative="1" as="geometry">
            <mxPoint x="964.59" y="150" as="sourcePoint" />
            <mxPoint x="1013.95" y="150" as="targetPoint" />
          </mxGeometry>
        </mxCell>
        <mxCell id="nig3Wq-WDGFd4Grmrsc5-60" value="" style="endArrow=block;html=1;rounded=0;endFill=1;endSize=5;startSize=5;" parent="1" edge="1">
          <mxGeometry width="50" height="50" relative="1" as="geometry">
            <mxPoint x="1204" y="140" as="sourcePoint" />
            <mxPoint x="1294.5900000000001" y="140" as="targetPoint" />
          </mxGeometry>
        </mxCell>
        <mxCell id="nig3Wq-WDGFd4Grmrsc5-61" value="" style="endArrow=block;html=1;rounded=0;endFill=1;orthogonal=1;endSize=5;startSize=5;" parent="1" edge="1">
          <mxGeometry width="50" height="50" relative="1" as="geometry">
            <mxPoint x="1204" y="150" as="sourcePoint" />
            <mxPoint x="1294.5900000000001" y="150" as="targetPoint" />
          </mxGeometry>
        </mxCell>
        <mxCell id="nig3Wq-WDGFd4Grmrsc5-62" value="" style="endArrow=block;html=1;rounded=0;endFill=1;orthogonal=1;endSize=5;startSize=5;" parent="1" edge="1">
          <mxGeometry width="50" height="50" relative="1" as="geometry">
            <mxPoint x="1213" y="160" as="sourcePoint" />
            <mxPoint x="1294.5900000000001" y="160" as="targetPoint" />
          </mxGeometry>
        </mxCell>
        <mxCell id="nig3Wq-WDGFd4Grmrsc5-63" value="" style="endArrow=block;html=1;rounded=0;endFill=1;endSize=5;startSize=5;" parent="1" edge="1">
          <mxGeometry width="50" height="50" relative="1" as="geometry">
            <mxPoint x="1204" y="120" as="sourcePoint" />
            <mxPoint x="1294.5900000000001" y="120" as="targetPoint" />
          </mxGeometry>
        </mxCell>
        <mxCell id="nig3Wq-WDGFd4Grmrsc5-64" value="" style="endArrow=block;html=1;rounded=0;endFill=1;endSize=5;startSize=5;" parent="1" edge="1">
          <mxGeometry width="50" height="50" relative="1" as="geometry">
            <mxPoint x="1204" y="110" as="sourcePoint" />
            <mxPoint x="1294.5900000000001" y="110" as="targetPoint" />
          </mxGeometry>
        </mxCell>
        <mxCell id="nig3Wq-WDGFd4Grmrsc5-65" value="" style="endArrow=block;html=1;rounded=0;endFill=1;endSize=5;startSize=5;" parent="1" edge="1">
          <mxGeometry width="50" height="50" relative="1" as="geometry">
            <mxPoint x="1213" y="100" as="sourcePoint" />
            <mxPoint x="1294.5900000000001" y="100" as="targetPoint" />
          </mxGeometry>
        </mxCell>
        <mxCell id="nig3Wq-WDGFd4Grmrsc5-66" value="" style="endArrow=none;html=1;rounded=1;curved=0;anchorPointDirection=1;movable=1;resizable=1;rotatable=1;deletable=1;editable=1;locked=0;connectable=1;startFill=1;endFill=1;snapToPoint=0;fixDash=0;ignoreEdge=0;orthogonal=1;jumpStyle=none;shadow=0;" parent="1" edge="1">
          <mxGeometry width="50" height="50" relative="1" as="geometry">
            <mxPoint x="1203.95" y="110" as="sourcePoint" />
            <mxPoint x="1213.95" y="100" as="targetPoint" />
            <Array as="points">
              <mxPoint x="1203.95" y="100" />
            </Array>
          </mxGeometry>
        </mxCell>
        <mxCell id="nig3Wq-WDGFd4Grmrsc5-67" value="" style="endArrow=none;html=1;rounded=0;" parent="1" edge="1">
          <mxGeometry width="50" height="50" relative="1" as="geometry">
            <mxPoint x="1203.95" y="150" as="sourcePoint" />
            <mxPoint x="1203.95" y="110" as="targetPoint" />
          </mxGeometry>
        </mxCell>
        <mxCell id="nig3Wq-WDGFd4Grmrsc5-68" value="" style="endArrow=none;html=1;rounded=1;curved=0;" parent="1" edge="1">
          <mxGeometry width="50" height="50" relative="1" as="geometry">
            <mxPoint x="1203.95" y="150" as="sourcePoint" />
            <mxPoint x="1213.95" y="160" as="targetPoint" />
            <Array as="points">
              <mxPoint x="1203.95" y="160" />
            </Array>
          </mxGeometry>
        </mxCell>
        <mxCell id="nig3Wq-WDGFd4Grmrsc5-69" value="" style="endArrow=block;html=1;rounded=0;endFill=1;endSize=5;startSize=5;" parent="1" edge="1">
          <mxGeometry width="50" height="50" relative="1" as="geometry">
            <mxPoint x="824.59" y="150" as="sourcePoint" />
            <mxPoint x="854.59" y="150" as="targetPoint" />
          </mxGeometry>
        </mxCell>
        <mxCell id="nig3Wq-WDGFd4Grmrsc5-70" value="" style="endArrow=block;html=1;rounded=0;endFill=1;endSize=5;startSize=5;" parent="1" edge="1">
          <mxGeometry width="50" height="50" relative="1" as="geometry">
            <mxPoint x="794.59" y="130" as="sourcePoint" />
            <mxPoint x="854.59" y="130" as="targetPoint" />
          </mxGeometry>
        </mxCell>
        <mxCell id="nig3Wq-WDGFd4Grmrsc5-71" value="BTNC" style="text;html=1;align=left;verticalAlign=middle;whiteSpace=wrap;rounded=0;fontFamily=Courier New;fontSize=10;fillOpacity=100;spacing=2;spacingLeft=0;connectable=0;" parent="1" vertex="1">
          <mxGeometry x="759.59" y="120" width="40" height="20" as="geometry" />
        </mxCell>
        <mxCell id="nig3Wq-WDGFd4Grmrsc5-72" value="SW_R(3:0)" style="text;html=1;align=left;verticalAlign=middle;whiteSpace=wrap;rounded=0;fontFamily=Courier New;fontSize=10;fillOpacity=100;spacing=2;spacingLeft=0;connectable=0;" parent="1" vertex="1">
          <mxGeometry x="759.59" y="140" width="40" height="20" as="geometry" />
        </mxCell>
        <mxCell id="nig3Wq-WDGFd4Grmrsc5-73" value="CA" style="text;html=1;align=left;verticalAlign=middle;whiteSpace=wrap;rounded=0;fontFamily=Courier New;fontSize=10;fillOpacity=100;spacing=2;spacingLeft=5;connectable=0;" parent="1" vertex="1">
          <mxGeometry x="1293.95" y="90" width="30" height="20" as="geometry" />
        </mxCell>
        <mxCell id="nig3Wq-WDGFd4Grmrsc5-74" value="CB" style="text;html=1;align=left;verticalAlign=middle;whiteSpace=wrap;rounded=0;fontFamily=Courier New;fontSize=10;fillOpacity=100;spacing=2;spacingLeft=5;connectable=0;" parent="1" vertex="1">
          <mxGeometry x="1293.95" y="100" width="30" height="20" as="geometry" />
        </mxCell>
        <mxCell id="nig3Wq-WDGFd4Grmrsc5-75" value="CC" style="text;html=1;align=left;verticalAlign=middle;whiteSpace=wrap;rounded=0;fontFamily=Courier New;fontSize=10;fillOpacity=100;spacing=2;spacingLeft=5;connectable=0;" parent="1" vertex="1">
          <mxGeometry x="1293.95" y="110" width="30" height="20" as="geometry" />
        </mxCell>
        <mxCell id="nig3Wq-WDGFd4Grmrsc5-76" value="CD" style="text;html=1;align=left;verticalAlign=middle;whiteSpace=wrap;rounded=0;fontFamily=Courier New;fontSize=10;fillOpacity=100;spacing=2;spacingLeft=5;connectable=0;" parent="1" vertex="1">
          <mxGeometry x="1293.95" y="120" width="30" height="20" as="geometry" />
        </mxCell>
        <mxCell id="nig3Wq-WDGFd4Grmrsc5-77" value="CE" style="text;html=1;align=left;verticalAlign=middle;whiteSpace=wrap;rounded=0;fontFamily=Courier New;fontSize=10;fillOpacity=100;spacing=2;spacingLeft=5;connectable=0;" parent="1" vertex="1">
          <mxGeometry x="1293.95" y="130" width="30" height="20" as="geometry" />
        </mxCell>
        <mxCell id="nig3Wq-WDGFd4Grmrsc5-78" value="CF" style="text;html=1;align=left;verticalAlign=middle;whiteSpace=wrap;rounded=0;fontFamily=Courier New;fontSize=10;fillOpacity=100;spacing=2;spacingLeft=5;connectable=0;" parent="1" vertex="1">
          <mxGeometry x="1293.95" y="140" width="30" height="20" as="geometry" />
        </mxCell>
        <mxCell id="nig3Wq-WDGFd4Grmrsc5-79" value="CG" style="text;html=1;align=left;verticalAlign=middle;whiteSpace=wrap;rounded=0;fontFamily=Courier New;fontSize=10;fillOpacity=100;spacing=2;spacingLeft=5;connectable=0;" parent="1" vertex="1">
          <mxGeometry x="1293.95" y="150" width="30" height="20" as="geometry" />
        </mxCell>
        <mxCell id="nig3Wq-WDGFd4Grmrsc5-80" value="sig_tmp(3:0)" style="text;html=1;align=center;verticalAlign=middle;whiteSpace=wrap;rounded=0;fontFamily=Courier New;fontSize=10;fillOpacity=100;spacing=2;spacingLeft=0;connectable=0;" parent="1" vertex="1">
          <mxGeometry x="953.95" y="130" width="50.64" height="20" as="geometry" />
        </mxCell>
        <mxCell id="nig3Wq-WDGFd4Grmrsc5-81" value="" style="endArrow=block;html=1;rounded=0;endFill=1;orthogonal=1;endSize=5;startSize=5;" parent="1" edge="1">
          <mxGeometry width="50" height="50" relative="1" as="geometry">
            <mxPoint x="904.59" y="220" as="sourcePoint" />
            <mxPoint x="1294.5900000000001" y="220" as="targetPoint" />
          </mxGeometry>
        </mxCell>
        <mxCell id="nig3Wq-WDGFd4Grmrsc5-82" value="" style="endArrow=none;html=1;rounded=0;startArrow=oval;startFill=1;endSize=4;startSize=4;" parent="1" edge="1">
          <mxGeometry width="50" height="50" relative="1" as="geometry">
            <mxPoint x="904.59" y="150" as="sourcePoint" />
            <mxPoint x="904.59" y="220" as="targetPoint" />
          </mxGeometry>
        </mxCell>
        <mxCell id="nig3Wq-WDGFd4Grmrsc5-83" value="LED_R(3:0)" style="text;html=1;align=left;verticalAlign=middle;whiteSpace=wrap;rounded=0;fontFamily=Courier New;fontSize=10;fillOpacity=100;spacing=2;spacingLeft=5;connectable=0;" parent="1" vertex="1">
          <mxGeometry x="1294.5900000000001" y="210" width="70" height="20" as="geometry" />
        </mxCell>
        <mxCell id="nig3Wq-WDGFd4Grmrsc5-84" value="" style="endArrow=block;html=1;rounded=0;endFill=1;orthogonal=1;endSize=5;startSize=5;" parent="1" edge="1">
          <mxGeometry width="50" height="50" relative="1" as="geometry">
            <mxPoint x="1203.5900000000001" y="260" as="sourcePoint" />
            <mxPoint x="1293.5900000000001" y="260" as="targetPoint" />
          </mxGeometry>
        </mxCell>
        <mxCell id="nig3Wq-WDGFd4Grmrsc5-85" value="b&quot;11_1111&quot;" style="text;html=1;align=left;verticalAlign=middle;whiteSpace=wrap;rounded=0;fontFamily=Courier New;fontSize=10;fillOpacity=100;spacing=2;spacingLeft=0;connectable=0;" parent="1" vertex="1">
          <mxGeometry x="1134.5900000000001" y="250" width="80" height="20" as="geometry" />
        </mxCell>
        <mxCell id="nig3Wq-WDGFd4Grmrsc5-86" value="AN(7:2)" style="text;html=1;align=left;verticalAlign=middle;whiteSpace=wrap;rounded=0;fontFamily=Courier New;fontSize=10;fillOpacity=100;spacing=2;spacingLeft=5;connectable=0;" parent="1" vertex="1">
          <mxGeometry x="1293.5900000000001" y="250" width="60.64" height="20" as="geometry" />
        </mxCell>
        <mxCell id="nig3Wq-WDGFd4Grmrsc5-87" value="" style="endArrow=block;html=1;rounded=0;endFill=1;orthogonal=1;endSize=5;startSize=5;" parent="1" edge="1">
          <mxGeometry width="50" height="50" relative="1" as="geometry">
            <mxPoint x="370" y="180" as="sourcePoint" />
            <mxPoint x="480" y="180" as="targetPoint" />
          </mxGeometry>
        </mxCell>
        <mxCell id="nig3Wq-WDGFd4Grmrsc5-88" value="DP" style="text;html=1;align=left;verticalAlign=middle;whiteSpace=wrap;rounded=0;fontFamily=Courier New;fontSize=10;fillOpacity=100;spacing=2;spacingLeft=5;connectable=0;" parent="1" vertex="1">
          <mxGeometry x="480" y="170" width="30" height="20" as="geometry" />
        </mxCell>
        <mxCell id="nig3Wq-WDGFd4Grmrsc5-89" value="&#39;1&#39;" style="text;html=1;align=left;verticalAlign=middle;whiteSpace=wrap;rounded=0;fontFamily=Courier New;fontSize=10;fillOpacity=100;spacing=2;spacingLeft=0;connectable=0;" parent="1" vertex="1">
          <mxGeometry x="345" y="170" width="30" height="20" as="geometry" />
        </mxCell>
        <mxCell id="nig3Wq-WDGFd4Grmrsc5-90" value="" style="verticalLabelPosition=bottom;shadow=0;dashed=0;align=center;html=1;verticalAlign=top;shape=mxgraph.electrical.opto_electronics.7_segment_display_with_dp;pointerEvents=1;fillColor=#FF0000;strokeColor=none;aspect=fixed;" parent="1" vertex="1">
          <mxGeometry x="560" y="90" width="65.82" height="80" as="geometry" />
        </mxCell>
        <mxCell id="nig3Wq-WDGFd4Grmrsc5-92" value="" style="endArrow=block;html=1;rounded=0;endFill=1;orthogonal=1;endSize=5;startSize=5;" parent="1" edge="1">
          <mxGeometry width="50" height="50" relative="1" as="geometry">
            <mxPoint x="1184.5900000000001" y="180" as="sourcePoint" />
            <mxPoint x="1294.5900000000001" y="180" as="targetPoint" />
          </mxGeometry>
        </mxCell>
        <mxCell id="nig3Wq-WDGFd4Grmrsc5-93" value="DP" style="text;html=1;align=left;verticalAlign=middle;whiteSpace=wrap;rounded=0;fontFamily=Courier New;fontSize=10;fillOpacity=100;spacing=2;spacingLeft=5;connectable=0;" parent="1" vertex="1">
          <mxGeometry x="1293.5900000000001" y="170" width="30" height="20" as="geometry" />
        </mxCell>
        <mxCell id="nig3Wq-WDGFd4Grmrsc5-94" value="&#39;1&#39;" style="text;html=1;align=left;verticalAlign=middle;whiteSpace=wrap;rounded=0;fontFamily=Courier New;fontSize=10;fillOpacity=100;spacing=2;spacingLeft=0;connectable=0;" parent="1" vertex="1">
          <mxGeometry x="1159.5900000000001" y="170" width="30" height="20" as="geometry" />
        </mxCell>
        <mxCell id="nig3Wq-WDGFd4Grmrsc5-96" value="" style="verticalLabelPosition=bottom;shadow=0;dashed=0;align=center;html=1;verticalAlign=top;shape=mxgraph.electrical.opto_electronics.7_segment_display_with_dp;pointerEvents=1;fillColor=#FF0000;strokeColor=none;aspect=fixed;" parent="1" vertex="1">
          <mxGeometry x="1374.5900000000001" y="90" width="65.82" height="80" as="geometry" />
        </mxCell>
        <mxCell id="nig3Wq-WDGFd4Grmrsc5-99" value="Mux" style="shadow=0;dashed=0;align=center;html=1;strokeWidth=1;shape=mxgraph.electrical.abstract.mux2;whiteSpace=wrap;aspect=fixed;fontSize=10;fontFamily=Courier New;fontColor=none;noLabel=1;connectable=0;" parent="1" vertex="1">
          <mxGeometry x="914.59" y="137" width="37.32" height="56" as="geometry" />
        </mxCell>
        <mxCell id="nig3Wq-WDGFd4Grmrsc5-101" value="" style="endArrow=block;html=1;rounded=0;endFill=1;endSize=5;startSize=5;" parent="1" edge="1">
          <mxGeometry width="50" height="50" relative="1" as="geometry">
            <mxPoint x="824.59" y="170" as="sourcePoint" />
            <mxPoint x="854.59" y="170" as="targetPoint" />
          </mxGeometry>
        </mxCell>
        <mxCell id="nig3Wq-WDGFd4Grmrsc5-102" value="SW_L(3:0)" style="text;html=1;align=left;verticalAlign=middle;whiteSpace=wrap;rounded=0;fontFamily=Courier New;fontSize=10;fillOpacity=100;spacing=2;spacingLeft=0;connectable=0;" parent="1" vertex="1">
          <mxGeometry x="759.59" y="160" width="40" height="20" as="geometry" />
        </mxCell>
        <mxCell id="nig3Wq-WDGFd4Grmrsc5-103" value="" style="endArrow=none;html=1;rounded=0;endFill=0;endSize=5;startSize=5;" parent="1" edge="1">
          <mxGeometry width="50" height="50" relative="1" as="geometry">
            <mxPoint x="854.59" y="150" as="sourcePoint" />
            <mxPoint x="914.59" y="150" as="targetPoint" />
          </mxGeometry>
        </mxCell>
        <mxCell id="nig3Wq-WDGFd4Grmrsc5-104" value="" style="endArrow=none;html=1;rounded=0;endFill=0;endSize=5;startSize=5;" parent="1" edge="1">
          <mxGeometry width="50" height="50" relative="1" as="geometry">
            <mxPoint x="854.59" y="170" as="sourcePoint" />
            <mxPoint x="914.59" y="170" as="targetPoint" />
          </mxGeometry>
        </mxCell>
        <mxCell id="nig3Wq-WDGFd4Grmrsc5-105" value="" style="endArrow=none;html=1;rounded=0;startArrow=none;startFill=0;endSize=5;startSize=5;" parent="1" edge="1">
          <mxGeometry width="50" height="50" relative="1" as="geometry">
            <mxPoint x="964.59" y="150" as="sourcePoint" />
            <mxPoint x="964.59" y="160" as="targetPoint" />
          </mxGeometry>
        </mxCell>
        <mxCell id="nig3Wq-WDGFd4Grmrsc5-106" value="" style="endArrow=none;html=1;rounded=0;endFill=0;endSize=5;startSize=5;" parent="1" edge="1">
          <mxGeometry width="50" height="50" relative="1" as="geometry">
            <mxPoint x="951.59" y="160" as="sourcePoint" />
            <mxPoint x="964.59" y="160" as="targetPoint" />
          </mxGeometry>
        </mxCell>
        <mxCell id="nig3Wq-WDGFd4Grmrsc5-107" value="" style="endArrow=block;html=1;rounded=0;endFill=1;endSize=5;startSize=5;" parent="1" edge="1">
          <mxGeometry width="50" height="50" relative="1" as="geometry">
            <mxPoint x="794.59" y="193" as="sourcePoint" />
            <mxPoint x="854.59" y="193" as="targetPoint" />
          </mxGeometry>
        </mxCell>
        <mxCell id="nig3Wq-WDGFd4Grmrsc5-108" value="BTND" style="text;html=1;align=left;verticalAlign=middle;whiteSpace=wrap;rounded=0;fontFamily=Courier New;fontSize=10;fillOpacity=100;spacing=2;spacingLeft=0;connectable=0;" parent="1" vertex="1">
          <mxGeometry x="759.59" y="183" width="40" height="20" as="geometry" />
        </mxCell>
        <mxCell id="nig3Wq-WDGFd4Grmrsc5-109" value="" style="endArrow=none;html=1;rounded=0;endFill=0;endSize=5;startSize=5;" parent="1" edge="1">
          <mxGeometry width="50" height="50" relative="1" as="geometry">
            <mxPoint x="854.59" y="193" as="sourcePoint" />
            <mxPoint x="933.59" y="193" as="targetPoint" />
          </mxGeometry>
        </mxCell>
        <mxCell id="nig3Wq-WDGFd4Grmrsc5-111" value="" style="endArrow=none;html=1;rounded=0;startArrow=oval;startFill=1;endSize=4;startSize=4;" parent="1" edge="1">
          <mxGeometry width="50" height="50" relative="1" as="geometry">
            <mxPoint x="889.59" y="170" as="sourcePoint" />
            <mxPoint x="889.59" y="240" as="targetPoint" />
          </mxGeometry>
        </mxCell>
        <mxCell id="nig3Wq-WDGFd4Grmrsc5-112" value="" style="endArrow=none;html=1;rounded=0;startArrow=oval;startFill=1;endSize=4;startSize=4;" parent="1" edge="1">
          <mxGeometry width="50" height="50" relative="1" as="geometry">
            <mxPoint x="874.59" y="193" as="sourcePoint" />
            <mxPoint x="874.59" y="280" as="targetPoint" />
          </mxGeometry>
        </mxCell>
        <mxCell id="nig3Wq-WDGFd4Grmrsc5-113" value="" style="verticalLabelPosition=bottom;shadow=0;dashed=0;align=center;html=1;verticalAlign=top;shape=mxgraph.electrical.opto_electronics.7_segment_display_with_dp;pointerEvents=1;fillColor=#FF0000;strokeColor=none;aspect=fixed;" parent="1" vertex="1">
          <mxGeometry x="1454.5900000000001" y="90" width="65.82" height="80" as="geometry" />
        </mxCell>
        <mxCell id="nig3Wq-WDGFd4Grmrsc5-114" value="" style="verticalLabelPosition=bottom;shadow=0;dashed=0;align=center;html=1;verticalAlign=top;shape=mxgraph.electrical.logic_gates.inverter_2;aspect=fixed;" parent="1" vertex="1">
          <mxGeometry x="1044.5900000000001" y="265" width="50" height="30" as="geometry" />
        </mxCell>
        <mxCell id="nig3Wq-WDGFd4Grmrsc5-115" value="" style="endArrow=block;html=1;rounded=0;endFill=1;orthogonal=1;endSize=5;startSize=5;" parent="1" edge="1">
          <mxGeometry width="50" height="50" relative="1" as="geometry">
            <mxPoint x="889.59" y="240" as="sourcePoint" />
            <mxPoint x="1294.5900000000001" y="240" as="targetPoint" />
          </mxGeometry>
        </mxCell>
        <mxCell id="nig3Wq-WDGFd4Grmrsc5-116" value="LED_L(3:0)" style="text;html=1;align=left;verticalAlign=middle;whiteSpace=wrap;rounded=0;fontFamily=Courier New;fontSize=10;fillOpacity=100;spacing=2;spacingLeft=5;connectable=0;" parent="1" vertex="1">
          <mxGeometry x="1294.5900000000001" y="230" width="70" height="20" as="geometry" />
        </mxCell>
        <mxCell id="nig3Wq-WDGFd4Grmrsc5-117" value="" style="endArrow=block;html=1;rounded=0;endFill=1;orthogonal=1;endSize=5;startSize=5;" parent="1" edge="1">
          <mxGeometry width="50" height="50" relative="1" as="geometry">
            <mxPoint x="1094.5900000000001" y="280" as="sourcePoint" />
            <mxPoint x="1294.5900000000001" y="280" as="targetPoint" />
          </mxGeometry>
        </mxCell>
        <mxCell id="nig3Wq-WDGFd4Grmrsc5-118" value="AN(1)" style="text;html=1;align=left;verticalAlign=middle;whiteSpace=wrap;rounded=0;fontFamily=Courier New;fontSize=10;fillOpacity=100;spacing=2;spacingLeft=5;connectable=0;" parent="1" vertex="1">
          <mxGeometry x="1293.5900000000001" y="270" width="60.64" height="20" as="geometry" />
        </mxCell>
        <mxCell id="nig3Wq-WDGFd4Grmrsc5-119" value="" style="endArrow=none;html=1;rounded=0;endFill=0;endSize=5;startSize=5;" parent="1" edge="1">
          <mxGeometry width="50" height="50" relative="1" as="geometry">
            <mxPoint x="874.59" y="280" as="sourcePoint" />
            <mxPoint x="1044.5900000000001" y="280" as="targetPoint" />
          </mxGeometry>
        </mxCell>
        <mxCell id="nig3Wq-WDGFd4Grmrsc5-120" value="" style="endArrow=block;html=1;rounded=0;endFill=1;orthogonal=1;endSize=5;startSize=5;" parent="1" edge="1">
          <mxGeometry width="50" height="50" relative="1" as="geometry">
            <mxPoint x="1014.59" y="300" as="sourcePoint" />
            <mxPoint x="1294.5900000000001" y="300" as="targetPoint" />
          </mxGeometry>
        </mxCell>
        <mxCell id="nig3Wq-WDGFd4Grmrsc5-121" value="AN(0)" style="text;html=1;align=left;verticalAlign=middle;whiteSpace=wrap;rounded=0;fontFamily=Courier New;fontSize=10;fillOpacity=100;spacing=2;spacingLeft=5;connectable=0;" parent="1" vertex="1">
          <mxGeometry x="1294.5900000000001" y="290" width="60.64" height="20" as="geometry" />
        </mxCell>
        <mxCell id="nig3Wq-WDGFd4Grmrsc5-122" value="" style="endArrow=none;html=1;rounded=0;startArrow=oval;startFill=1;endSize=4;startSize=4;" parent="1" edge="1">
          <mxGeometry width="50" height="50" relative="1" as="geometry">
            <mxPoint x="1014.59" y="280" as="sourcePoint" />
            <mxPoint x="1014.59" y="300" as="targetPoint" />
          </mxGeometry>
        </mxCell>
        <mxCell id="4zQnGD1nhI3BBjdLwseV-1" value="" style="verticalLabelPosition=bottom;shadow=0;dashed=0;align=center;html=1;verticalAlign=top;shape=mxgraph.electrical.logic_gates.logic_gate;operation=xor;aspect=fixed;connectable=0;" parent="1" vertex="1">
          <mxGeometry x="40" y="720" width="50" height="30" as="geometry" />
        </mxCell>
        <mxCell id="4zQnGD1nhI3BBjdLwseV-2" value="" style="verticalLabelPosition=bottom;shadow=0;dashed=0;align=center;html=1;verticalAlign=top;shape=mxgraph.electrical.logic_gates.logic_gate;operation=and;aspect=fixed;connectable=0;" parent="1" vertex="1">
          <mxGeometry x="150" y="775" width="50" height="30" as="geometry" />
        </mxCell>
        <mxCell id="4zQnGD1nhI3BBjdLwseV-3" value="" style="verticalLabelPosition=bottom;shadow=0;dashed=0;align=center;html=1;verticalAlign=top;shape=mxgraph.electrical.logic_gates.logic_gate;operation=or;aspect=fixed;connectable=0;" parent="1" vertex="1">
          <mxGeometry x="210" y="795" width="50" height="30" as="geometry" />
        </mxCell>
        <mxCell id="4zQnGD1nhI3BBjdLwseV-5" value="" style="verticalLabelPosition=bottom;shadow=0;dashed=0;align=center;html=1;verticalAlign=top;shape=mxgraph.electrical.logic_gates.logic_gate;operation=xor;aspect=fixed;connectable=0;" parent="1" vertex="1">
          <mxGeometry x="110" y="740" width="50" height="30" as="geometry" />
        </mxCell>
        <mxCell id="4zQnGD1nhI3BBjdLwseV-6" value="" style="endArrow=none;html=1;rounded=0;endFill=0;endSize=5;startSize=5;" parent="1" edge="1">
          <mxGeometry width="50" height="50" relative="1" as="geometry">
            <mxPoint y="727.5" as="sourcePoint" />
            <mxPoint x="40" y="727.5" as="targetPoint" />
          </mxGeometry>
        </mxCell>
        <mxCell id="4zQnGD1nhI3BBjdLwseV-7" value="" style="endArrow=none;html=1;rounded=0;endFill=0;endSize=5;startSize=5;" parent="1" edge="1">
          <mxGeometry width="50" height="50" relative="1" as="geometry">
            <mxPoint y="742.5" as="sourcePoint" />
            <mxPoint x="40" y="742.5" as="targetPoint" />
          </mxGeometry>
        </mxCell>
        <mxCell id="4zQnGD1nhI3BBjdLwseV-8" value="" style="endArrow=none;html=1;rounded=0;endFill=0;endSize=5;startSize=5;" parent="1" edge="1">
          <mxGeometry width="50" height="50" relative="1" as="geometry">
            <mxPoint y="762.5" as="sourcePoint" />
            <mxPoint x="110" y="762.5" as="targetPoint" />
          </mxGeometry>
        </mxCell>
        <mxCell id="4zQnGD1nhI3BBjdLwseV-9" value="" style="endArrow=none;html=1;rounded=0;endFill=0;endSize=5;startSize=5;" parent="1" edge="1">
          <mxGeometry width="50" height="50" relative="1" as="geometry">
            <mxPoint x="105" y="735" as="sourcePoint" />
            <mxPoint x="105" y="747.5" as="targetPoint" />
          </mxGeometry>
        </mxCell>
        <mxCell id="4zQnGD1nhI3BBjdLwseV-10" value="" style="endArrow=none;html=1;rounded=0;endFill=0;endSize=5;startSize=5;" parent="1" edge="1">
          <mxGeometry width="50" height="50" relative="1" as="geometry">
            <mxPoint x="90" y="735" as="sourcePoint" />
            <mxPoint x="105" y="735" as="targetPoint" />
          </mxGeometry>
        </mxCell>
        <mxCell id="4zQnGD1nhI3BBjdLwseV-11" value="a" style="text;html=1;align=left;verticalAlign=middle;whiteSpace=wrap;rounded=0;fontFamily=Courier New;fontSize=10;fillOpacity=100;spacing=2;spacingLeft=0;connectable=0;" parent="1" vertex="1">
          <mxGeometry x="-65" y="717.5" width="30" height="20" as="geometry" />
        </mxCell>
        <mxCell id="4zQnGD1nhI3BBjdLwseV-12" value="b" style="text;html=1;align=left;verticalAlign=middle;whiteSpace=wrap;rounded=0;fontFamily=Courier New;fontSize=10;fillOpacity=100;spacing=2;spacingLeft=0;connectable=0;" parent="1" vertex="1">
          <mxGeometry x="-65" y="732.5" width="30" height="20" as="geometry" />
        </mxCell>
        <mxCell id="4zQnGD1nhI3BBjdLwseV-13" value="c_in" style="text;html=1;align=left;verticalAlign=middle;whiteSpace=wrap;rounded=0;fontFamily=Courier New;fontSize=10;fillOpacity=100;spacing=2;spacingLeft=0;connectable=0;" parent="1" vertex="1">
          <mxGeometry x="-65" y="752.5" width="30" height="20" as="geometry" />
        </mxCell>
        <mxCell id="3X3M70Q2T5t_4ZY13hNR-1" value="" style="endArrow=none;html=1;rounded=0;startArrow=oval;startFill=1;endSize=4;startSize=4;" parent="1" edge="1">
          <mxGeometry width="50" height="50" relative="1" as="geometry">
            <mxPoint x="105" y="762.5" as="sourcePoint" />
            <mxPoint x="105" y="782.5" as="targetPoint" />
          </mxGeometry>
        </mxCell>
        <mxCell id="3X3M70Q2T5t_4ZY13hNR-2" value="" style="endArrow=none;html=1;rounded=0;startArrow=oval;startFill=1;endSize=4;startSize=4;" parent="1" edge="1">
          <mxGeometry width="50" height="50" relative="1" as="geometry">
            <mxPoint x="90" y="735" as="sourcePoint" />
            <mxPoint x="90" y="797.5" as="targetPoint" />
          </mxGeometry>
        </mxCell>
        <mxCell id="3X3M70Q2T5t_4ZY13hNR-3" value="" style="endArrow=none;html=1;rounded=0;startArrow=oval;startFill=1;endSize=4;startSize=4;" parent="1" edge="1">
          <mxGeometry width="50" height="50" relative="1" as="geometry">
            <mxPoint x="35" y="742.5" as="sourcePoint" />
            <mxPoint x="35" y="822.5" as="targetPoint" />
          </mxGeometry>
        </mxCell>
        <mxCell id="3X3M70Q2T5t_4ZY13hNR-4" value="" style="endArrow=none;html=1;rounded=0;startArrow=oval;startFill=1;endSize=4;startSize=4;" parent="1" edge="1">
          <mxGeometry width="50" height="50" relative="1" as="geometry">
            <mxPoint x="20" y="727.5" as="sourcePoint" />
            <mxPoint x="20" y="837.5" as="targetPoint" />
          </mxGeometry>
        </mxCell>
        <mxCell id="3X3M70Q2T5t_4ZY13hNR-5" value="" style="endArrow=none;html=1;rounded=0;endFill=0;endSize=5;startSize=5;" parent="1" edge="1">
          <mxGeometry width="50" height="50" relative="1" as="geometry">
            <mxPoint x="105" y="782.5" as="sourcePoint" />
            <mxPoint x="150" y="782.5" as="targetPoint" />
          </mxGeometry>
        </mxCell>
        <mxCell id="3X3M70Q2T5t_4ZY13hNR-6" value="" style="endArrow=none;html=1;rounded=0;endFill=0;endSize=5;startSize=5;" parent="1" edge="1">
          <mxGeometry width="50" height="50" relative="1" as="geometry">
            <mxPoint x="90" y="797.5" as="sourcePoint" />
            <mxPoint x="150" y="797.5" as="targetPoint" />
          </mxGeometry>
        </mxCell>
        <mxCell id="3X3M70Q2T5t_4ZY13hNR-8" value="" style="endArrow=none;html=1;rounded=0;endFill=0;endSize=5;startSize=5;" parent="1" edge="1">
          <mxGeometry width="50" height="50" relative="1" as="geometry">
            <mxPoint x="105" y="747.5" as="sourcePoint" />
            <mxPoint x="110" y="747.5" as="targetPoint" />
          </mxGeometry>
        </mxCell>
        <mxCell id="3X3M70Q2T5t_4ZY13hNR-9" value="" style="verticalLabelPosition=bottom;shadow=0;dashed=0;align=center;html=1;verticalAlign=top;shape=mxgraph.electrical.logic_gates.logic_gate;operation=and;aspect=fixed;connectable=0;" parent="1" vertex="1">
          <mxGeometry x="150" y="815" width="50" height="30" as="geometry" />
        </mxCell>
        <mxCell id="3X3M70Q2T5t_4ZY13hNR-10" value="" style="endArrow=none;html=1;rounded=0;endFill=0;endSize=5;startSize=5;" parent="1" edge="1">
          <mxGeometry width="50" height="50" relative="1" as="geometry">
            <mxPoint x="35" y="822.5" as="sourcePoint" />
            <mxPoint x="150" y="822.5" as="targetPoint" />
          </mxGeometry>
        </mxCell>
        <mxCell id="3X3M70Q2T5t_4ZY13hNR-11" value="" style="endArrow=none;html=1;rounded=0;endFill=0;endSize=5;startSize=5;" parent="1" edge="1">
          <mxGeometry width="50" height="50" relative="1" as="geometry">
            <mxPoint x="20" y="837.5" as="sourcePoint" />
            <mxPoint x="150" y="837.5" as="targetPoint" />
          </mxGeometry>
        </mxCell>
        <mxCell id="3X3M70Q2T5t_4ZY13hNR-12" value="" style="endArrow=none;html=1;rounded=0;endFill=0;endSize=5;startSize=5;" parent="1" edge="1">
          <mxGeometry width="50" height="50" relative="1" as="geometry">
            <mxPoint x="200" y="790" as="sourcePoint" />
            <mxPoint x="205" y="790" as="targetPoint" />
          </mxGeometry>
        </mxCell>
        <mxCell id="3X3M70Q2T5t_4ZY13hNR-13" value="" style="endArrow=none;html=1;rounded=0;endFill=0;endSize=5;startSize=5;" parent="1" edge="1">
          <mxGeometry width="50" height="50" relative="1" as="geometry">
            <mxPoint x="205" y="802.5" as="sourcePoint" />
            <mxPoint x="210" y="802.5" as="targetPoint" />
          </mxGeometry>
        </mxCell>
        <mxCell id="3X3M70Q2T5t_4ZY13hNR-14" value="" style="endArrow=none;html=1;rounded=0;endFill=0;endSize=5;startSize=5;" parent="1" edge="1">
          <mxGeometry width="50" height="50" relative="1" as="geometry">
            <mxPoint x="205" y="790" as="sourcePoint" />
            <mxPoint x="205" y="803" as="targetPoint" />
          </mxGeometry>
        </mxCell>
        <mxCell id="3X3M70Q2T5t_4ZY13hNR-15" value="" style="endArrow=none;html=1;rounded=0;endFill=0;endSize=5;startSize=5;" parent="1" edge="1">
          <mxGeometry width="50" height="50" relative="1" as="geometry">
            <mxPoint x="200" y="830" as="sourcePoint" />
            <mxPoint x="205" y="830" as="targetPoint" />
          </mxGeometry>
        </mxCell>
        <mxCell id="3X3M70Q2T5t_4ZY13hNR-16" value="" style="endArrow=none;html=1;rounded=0;endFill=0;endSize=5;startSize=5;" parent="1" edge="1">
          <mxGeometry width="50" height="50" relative="1" as="geometry">
            <mxPoint x="205" y="817.5" as="sourcePoint" />
            <mxPoint x="205" y="830" as="targetPoint" />
          </mxGeometry>
        </mxCell>
        <mxCell id="3X3M70Q2T5t_4ZY13hNR-17" value="" style="endArrow=none;html=1;rounded=0;endFill=0;endSize=5;startSize=5;" parent="1" edge="1">
          <mxGeometry width="50" height="50" relative="1" as="geometry">
            <mxPoint x="205" y="817.5" as="sourcePoint" />
            <mxPoint x="210" y="817.5" as="targetPoint" />
          </mxGeometry>
        </mxCell>
        <mxCell id="3X3M70Q2T5t_4ZY13hNR-18" value="" style="endArrow=block;html=1;rounded=0;endFill=1;endSize=5;startSize=5;" parent="1" edge="1">
          <mxGeometry width="50" height="50" relative="1" as="geometry">
            <mxPoint x="160" y="755" as="sourcePoint" />
            <mxPoint x="300" y="755" as="targetPoint" />
          </mxGeometry>
        </mxCell>
        <mxCell id="3X3M70Q2T5t_4ZY13hNR-20" value="" style="endArrow=block;html=1;rounded=0;endFill=1;orthogonal=1;endSize=5;startSize=5;" parent="1" edge="1">
          <mxGeometry width="50" height="50" relative="1" as="geometry">
            <mxPoint x="260" y="810" as="sourcePoint" />
            <mxPoint x="300" y="810" as="targetPoint" />
          </mxGeometry>
        </mxCell>
        <mxCell id="3X3M70Q2T5t_4ZY13hNR-21" value="c_out" style="text;html=1;align=left;verticalAlign=middle;whiteSpace=wrap;rounded=0;fontFamily=Courier New;fontSize=10;fillOpacity=100;spacing=2;spacingLeft=5;connectable=0;" parent="1" vertex="1">
          <mxGeometry x="300" y="800" width="60.64" height="20" as="geometry" />
        </mxCell>
        <mxCell id="3X3M70Q2T5t_4ZY13hNR-22" value="sum" style="text;html=1;align=left;verticalAlign=middle;whiteSpace=wrap;rounded=0;fontFamily=Courier New;fontSize=10;fillOpacity=100;spacing=2;spacingLeft=5;connectable=0;" parent="1" vertex="1">
          <mxGeometry x="300" y="745" width="60.64" height="20" as="geometry" />
        </mxCell>
        <mxCell id="3X3M70Q2T5t_4ZY13hNR-23" value="half_adder.vhd" style="rounded=1;arcSize=10;align=left;verticalAlign=top;fontFamily=Courier New;absoluteArcSize=0;fillColor=none;points=[[0,0,0,0,0],[0,0.25,0,0,0],[0,0.5,0,0,0],[0,0.75,0,0,0],[0,1,0,0,0],[0.25,0,0,0,0],[0.25,1,0,0,0],[0.5,0,0,0,0],[0.5,1,0,0,0],[0.75,0,0,0,0],[0.75,1,0,0,0],[1,0,0,0,0],[1,0.25,0,0,0],[1,0.5,0,0,0],[1,0.75,0,0,0],[1,1,0,0,0]];connectable=0;snapToPoint=0;fixDash=0;metaEdit=0;autosize=0;fontSize=10;spacingLeft=5;labelBorderColor=none;spacingTop=0;spacing=2;labelBackgroundColor=none;whiteSpace=wrap;html=1;strokeWidth=1;shadow=0;glass=0;" parent="1" vertex="1">
          <mxGeometry x="160" y="920" width="100" height="80" as="geometry" />
        </mxCell>
        <mxCell id="3X3M70Q2T5t_4ZY13hNR-24" value="b" style="text;html=1;align=left;verticalAlign=middle;whiteSpace=wrap;rounded=0;fontFamily=Courier New;fontSize=10;fillOpacity=100;spacingLeft=5;" parent="1" vertex="1">
          <mxGeometry x="159.36" y="970" width="60" height="20" as="geometry" />
        </mxCell>
        <mxCell id="3X3M70Q2T5t_4ZY13hNR-25" value="a" style="text;html=1;align=left;verticalAlign=middle;whiteSpace=wrap;rounded=0;fontFamily=Courier New;fontSize=10;fillOpacity=100;spacing=2;spacingLeft=5;" parent="1" vertex="1">
          <mxGeometry x="159.36" y="950" width="60" height="20" as="geometry" />
        </mxCell>
        <mxCell id="3X3M70Q2T5t_4ZY13hNR-26" value="" style="endArrow=block;html=1;rounded=0;endFill=1;endSize=5;startSize=5;" parent="1" edge="1">
          <mxGeometry width="50" height="50" relative="1" as="geometry">
            <mxPoint y="960" as="sourcePoint" />
            <mxPoint x="160" y="960" as="targetPoint" />
          </mxGeometry>
        </mxCell>
        <mxCell id="3X3M70Q2T5t_4ZY13hNR-27" value="" style="endArrow=block;html=1;rounded=0;endFill=1;endSize=5;startSize=5;" parent="1" edge="1">
          <mxGeometry width="50" height="50" relative="1" as="geometry">
            <mxPoint x="140" y="980" as="sourcePoint" />
            <mxPoint x="160" y="980" as="targetPoint" />
          </mxGeometry>
        </mxCell>
        <mxCell id="3X3M70Q2T5t_4ZY13hNR-28" value="sum" style="text;html=1;align=right;verticalAlign=middle;whiteSpace=wrap;rounded=0;fontFamily=Courier New;fontSize=10;fillOpacity=100;spacing=2;spacingRight=5;" parent="1" vertex="1">
          <mxGeometry x="200" y="950" width="60" height="20" as="geometry" />
        </mxCell>
        <mxCell id="3X3M70Q2T5t_4ZY13hNR-29" value="" style="endArrow=block;html=1;rounded=0;exitX=1;exitY=0.5;exitDx=0;exitDy=0;endFill=1;endSize=5;startSize=5;" parent="1" source="3X3M70Q2T5t_4ZY13hNR-28" edge="1">
          <mxGeometry width="50" height="50" relative="1" as="geometry">
            <mxPoint x="339.36" y="1100" as="sourcePoint" />
            <mxPoint x="375" y="960" as="targetPoint" />
          </mxGeometry>
        </mxCell>
        <mxCell id="3X3M70Q2T5t_4ZY13hNR-30" value="carry" style="text;html=1;align=right;verticalAlign=middle;whiteSpace=wrap;rounded=0;fontFamily=Courier New;fontSize=10;fillOpacity=100;spacing=2;spacingRight=5;" parent="1" vertex="1">
          <mxGeometry x="200" y="970" width="60" height="20" as="geometry" />
        </mxCell>
        <mxCell id="3X3M70Q2T5t_4ZY13hNR-31" value="" style="endArrow=none;html=1;rounded=0;exitX=1;exitY=0.5;exitDx=0;exitDy=0;endFill=0;endSize=5;startSize=5;" parent="1" source="3X3M70Q2T5t_4ZY13hNR-30" edge="1">
          <mxGeometry width="50" height="50" relative="1" as="geometry">
            <mxPoint x="340" y="1120" as="sourcePoint" />
            <mxPoint x="280" y="980" as="targetPoint" />
          </mxGeometry>
        </mxCell>
        <mxCell id="3X3M70Q2T5t_4ZY13hNR-32" value="half_adder.vhd" style="rounded=1;arcSize=10;align=left;verticalAlign=top;fontFamily=Courier New;absoluteArcSize=0;fillColor=none;points=[[0,0,0,0,0],[0,0.25,0,0,0],[0,0.5,0,0,0],[0,0.75,0,0,0],[0,1,0,0,0],[0.25,0,0,0,0],[0.25,1,0,0,0],[0.5,0,0,0,0],[0.5,1,0,0,0],[0.75,0,0,0,0],[0.75,1,0,0,0],[1,0,0,0,0],[1,0.25,0,0,0],[1,0.5,0,0,0],[1,0.75,0,0,0],[1,1,0,0,0]];connectable=0;snapToPoint=0;fixDash=0;metaEdit=0;autosize=0;fontSize=10;spacingLeft=5;labelBorderColor=none;spacingTop=0;spacing=2;labelBackgroundColor=none;whiteSpace=wrap;html=1;strokeWidth=1;shadow=0;glass=0;" parent="1" vertex="1">
          <mxGeometry x="20" y="1000" width="100" height="80" as="geometry" />
        </mxCell>
        <mxCell id="3X3M70Q2T5t_4ZY13hNR-33" value="b" style="text;html=1;align=left;verticalAlign=middle;whiteSpace=wrap;rounded=0;fontFamily=Courier New;fontSize=10;fillOpacity=100;spacingLeft=5;" parent="1" vertex="1">
          <mxGeometry x="19.360000000000014" y="1050" width="60" height="20" as="geometry" />
        </mxCell>
        <mxCell id="3X3M70Q2T5t_4ZY13hNR-34" value="a" style="text;html=1;align=left;verticalAlign=middle;whiteSpace=wrap;rounded=0;fontFamily=Courier New;fontSize=10;fillOpacity=100;spacing=2;spacingLeft=5;" parent="1" vertex="1">
          <mxGeometry x="19.360000000000014" y="1030" width="60" height="20" as="geometry" />
        </mxCell>
        <mxCell id="3X3M70Q2T5t_4ZY13hNR-35" value="sum" style="text;html=1;align=right;verticalAlign=middle;whiteSpace=wrap;rounded=0;fontFamily=Courier New;fontSize=10;fillOpacity=100;spacing=2;spacingRight=5;" parent="1" vertex="1">
          <mxGeometry x="60" y="1030" width="60" height="20" as="geometry" />
        </mxCell>
        <mxCell id="3X3M70Q2T5t_4ZY13hNR-36" value="carry" style="text;html=1;align=right;verticalAlign=middle;whiteSpace=wrap;rounded=0;fontFamily=Courier New;fontSize=10;fillOpacity=100;spacing=2;spacingRight=5;" parent="1" vertex="1">
          <mxGeometry x="60" y="1050" width="60" height="20" as="geometry" />
        </mxCell>
        <mxCell id="3X3M70Q2T5t_4ZY13hNR-37" value="" style="endArrow=block;html=1;rounded=0;endFill=1;endSize=5;startSize=5;" parent="1" edge="1">
          <mxGeometry width="50" height="50" relative="1" as="geometry">
            <mxPoint y="1040" as="sourcePoint" />
            <mxPoint x="20" y="1040" as="targetPoint" />
          </mxGeometry>
        </mxCell>
        <mxCell id="3X3M70Q2T5t_4ZY13hNR-38" value="" style="endArrow=block;html=1;rounded=0;endFill=1;endSize=5;startSize=5;" parent="1" edge="1">
          <mxGeometry width="50" height="50" relative="1" as="geometry">
            <mxPoint y="1060" as="sourcePoint" />
            <mxPoint x="20" y="1060" as="targetPoint" />
          </mxGeometry>
        </mxCell>
        <mxCell id="3X3M70Q2T5t_4ZY13hNR-39" value="" style="endArrow=none;html=1;rounded=0;exitX=1;exitY=0.5;exitDx=0;exitDy=0;endFill=0;endSize=5;startSize=5;" parent="1" edge="1">
          <mxGeometry width="50" height="50" relative="1" as="geometry">
            <mxPoint x="120" y="1040" as="sourcePoint" />
            <mxPoint x="140" y="1040" as="targetPoint" />
          </mxGeometry>
        </mxCell>
        <mxCell id="3X3M70Q2T5t_4ZY13hNR-40" value="" style="endArrow=none;html=1;rounded=0;exitX=1;exitY=0.5;exitDx=0;exitDy=0;endFill=0;endSize=5;startSize=5;" parent="1" edge="1">
          <mxGeometry width="50" height="50" relative="1" as="geometry">
            <mxPoint x="120" y="1060" as="sourcePoint" />
            <mxPoint x="280" y="1060" as="targetPoint" />
          </mxGeometry>
        </mxCell>
        <mxCell id="3X3M70Q2T5t_4ZY13hNR-41" value="" style="endArrow=none;html=1;rounded=0;startArrow=none;startFill=0;endSize=4;startSize=4;" parent="1" edge="1">
          <mxGeometry width="50" height="50" relative="1" as="geometry">
            <mxPoint x="140" y="980" as="sourcePoint" />
            <mxPoint x="140" y="1040" as="targetPoint" />
          </mxGeometry>
        </mxCell>
        <mxCell id="3X3M70Q2T5t_4ZY13hNR-42" value="" style="verticalLabelPosition=bottom;shadow=0;dashed=0;align=center;html=1;verticalAlign=top;shape=mxgraph.electrical.logic_gates.logic_gate;operation=or;aspect=fixed;connectable=0;" parent="1" vertex="1">
          <mxGeometry x="284.72" y="1005" width="50" height="30" as="geometry" />
        </mxCell>
        <mxCell id="3X3M70Q2T5t_4ZY13hNR-44" value="" style="endArrow=none;html=1;rounded=0;endFill=0;endSize=5;startSize=5;" parent="1" edge="1">
          <mxGeometry width="50" height="50" relative="1" as="geometry">
            <mxPoint x="279.72" y="1012.5" as="sourcePoint" />
            <mxPoint x="284.72" y="1012.5" as="targetPoint" />
          </mxGeometry>
        </mxCell>
        <mxCell id="3X3M70Q2T5t_4ZY13hNR-45" value="" style="endArrow=none;html=1;rounded=0;endFill=0;endSize=5;startSize=5;" parent="1" edge="1">
          <mxGeometry width="50" height="50" relative="1" as="geometry">
            <mxPoint x="280" y="980" as="sourcePoint" />
            <mxPoint x="280" y="1013" as="targetPoint" />
          </mxGeometry>
        </mxCell>
        <mxCell id="3X3M70Q2T5t_4ZY13hNR-47" value="" style="endArrow=none;html=1;rounded=0;endFill=0;endSize=5;startSize=5;" parent="1" edge="1">
          <mxGeometry width="50" height="50" relative="1" as="geometry">
            <mxPoint x="280" y="1027.5" as="sourcePoint" />
            <mxPoint x="280" y="1060" as="targetPoint" />
          </mxGeometry>
        </mxCell>
        <mxCell id="3X3M70Q2T5t_4ZY13hNR-48" value="" style="endArrow=none;html=1;rounded=0;endFill=0;endSize=5;startSize=5;" parent="1" edge="1">
          <mxGeometry width="50" height="50" relative="1" as="geometry">
            <mxPoint x="279.72" y="1027.5" as="sourcePoint" />
            <mxPoint x="284.72" y="1027.5" as="targetPoint" />
          </mxGeometry>
        </mxCell>
        <mxCell id="3X3M70Q2T5t_4ZY13hNR-49" value="" style="endArrow=block;html=1;rounded=0;endFill=1;orthogonal=1;endSize=5;startSize=5;" parent="1" edge="1">
          <mxGeometry width="50" height="50" relative="1" as="geometry">
            <mxPoint x="335" y="1020" as="sourcePoint" />
            <mxPoint x="375" y="1020" as="targetPoint" />
          </mxGeometry>
        </mxCell>
        <mxCell id="3X3M70Q2T5t_4ZY13hNR-50" value="c_out" style="text;html=1;align=left;verticalAlign=middle;whiteSpace=wrap;rounded=0;fontFamily=Courier New;fontSize=10;fillOpacity=100;spacing=2;spacingLeft=5;connectable=0;" parent="1" vertex="1">
          <mxGeometry x="374.72" y="1010" width="60.64" height="20" as="geometry" />
        </mxCell>
        <mxCell id="3X3M70Q2T5t_4ZY13hNR-51" value="sum" style="text;html=1;align=left;verticalAlign=middle;whiteSpace=wrap;rounded=0;fontFamily=Courier New;fontSize=10;fillOpacity=100;spacing=2;spacingLeft=5;connectable=0;" parent="1" vertex="1">
          <mxGeometry x="374.72" y="950" width="60.64" height="20" as="geometry" />
        </mxCell>
        <mxCell id="3X3M70Q2T5t_4ZY13hNR-52" value="c_in" style="text;html=1;align=left;verticalAlign=middle;whiteSpace=wrap;rounded=0;fontFamily=Courier New;fontSize=10;fillOpacity=100;spacing=2;spacingLeft=0;connectable=0;" parent="1" vertex="1">
          <mxGeometry x="-65" y="950" width="35" height="20" as="geometry" />
        </mxCell>
        <mxCell id="3X3M70Q2T5t_4ZY13hNR-53" value="a" style="text;html=1;align=left;verticalAlign=middle;whiteSpace=wrap;rounded=0;fontFamily=Courier New;fontSize=10;fillOpacity=100;spacing=2;spacingLeft=0;connectable=0;" parent="1" vertex="1">
          <mxGeometry x="-65" y="1030" width="20" height="20" as="geometry" />
        </mxCell>
        <mxCell id="3X3M70Q2T5t_4ZY13hNR-54" value="b" style="text;html=1;align=left;verticalAlign=middle;whiteSpace=wrap;rounded=0;fontFamily=Courier New;fontSize=10;fillOpacity=100;spacing=2;spacingLeft=0;connectable=0;" parent="1" vertex="1">
          <mxGeometry x="-65" y="1050" width="20" height="20" as="geometry" />
        </mxCell>
        <mxCell id="3X3M70Q2T5t_4ZY13hNR-55" value="sig_c0" style="text;html=1;align=center;verticalAlign=middle;whiteSpace=wrap;rounded=0;fontFamily=Courier New;fontSize=10;fillOpacity=100;spacing=2;spacingLeft=0;connectable=0;" parent="1" vertex="1">
          <mxGeometry x="159.36" y="1060" width="50.64" height="20" as="geometry" />
        </mxCell>
        <mxCell id="3X3M70Q2T5t_4ZY13hNR-56" value="sig_sum0" style="text;html=1;align=center;verticalAlign=middle;whiteSpace=wrap;rounded=0;fontFamily=Courier New;fontSize=10;fillOpacity=100;spacing=2;spacingLeft=0;connectable=0;" parent="1" vertex="1">
          <mxGeometry x="148.72000000000003" y="1020" width="50.64" height="20" as="geometry" />
        </mxCell>
        <mxCell id="3X3M70Q2T5t_4ZY13hNR-57" value="sig_c1" style="text;html=1;align=center;verticalAlign=middle;whiteSpace=wrap;rounded=0;fontFamily=Courier New;fontSize=10;fillOpacity=100;spacing=2;spacingLeft=0;connectable=0;" parent="1" vertex="1">
          <mxGeometry x="284.72" y="970" width="50.64" height="20" as="geometry" />
        </mxCell>
        <mxCell id="N4TtajftBBADn4jUO-1_-1" value="" style="endArrow=block;html=1;rounded=0;endFill=1;endSize=5;startSize=5;" parent="1" edge="1">
          <mxGeometry width="50" height="50" relative="1" as="geometry">
            <mxPoint x="-50" y="1060" as="sourcePoint" />
            <mxPoint y="1060" as="targetPoint" />
          </mxGeometry>
        </mxCell>
        <mxCell id="N4TtajftBBADn4jUO-1_-2" value="" style="endArrow=block;html=1;rounded=0;endFill=1;endSize=5;startSize=5;" parent="1" edge="1">
          <mxGeometry width="50" height="50" relative="1" as="geometry">
            <mxPoint x="-50" y="1040" as="sourcePoint" />
            <mxPoint y="1040" as="targetPoint" />
          </mxGeometry>
        </mxCell>
        <mxCell id="N4TtajftBBADn4jUO-1_-3" value="" style="endArrow=block;html=1;rounded=0;endFill=1;endSize=5;startSize=5;" parent="1" edge="1">
          <mxGeometry width="50" height="50" relative="1" as="geometry">
            <mxPoint x="-30" y="960" as="sourcePoint" />
            <mxPoint y="960" as="targetPoint" />
          </mxGeometry>
        </mxCell>
        <mxCell id="N4TtajftBBADn4jUO-1_-5" value="" style="endArrow=block;html=1;rounded=0;endFill=1;endSize=5;startSize=5;" parent="1" edge="1">
          <mxGeometry width="50" height="50" relative="1" as="geometry">
            <mxPoint x="-30" y="762.5" as="sourcePoint" />
            <mxPoint y="762.5" as="targetPoint" />
          </mxGeometry>
        </mxCell>
        <mxCell id="N4TtajftBBADn4jUO-1_-6" value="" style="endArrow=block;html=1;rounded=0;endFill=1;endSize=5;startSize=5;" parent="1" edge="1">
          <mxGeometry width="50" height="50" relative="1" as="geometry">
            <mxPoint x="-50" y="742.5" as="sourcePoint" />
            <mxPoint y="742.5" as="targetPoint" />
          </mxGeometry>
        </mxCell>
        <mxCell id="N4TtajftBBADn4jUO-1_-7" value="" style="endArrow=block;html=1;rounded=0;endFill=1;endSize=5;startSize=5;" parent="1" edge="1">
          <mxGeometry width="50" height="50" relative="1" as="geometry">
            <mxPoint x="-50" y="727.5" as="sourcePoint" />
            <mxPoint y="727.5" as="targetPoint" />
          </mxGeometry>
        </mxCell>
        <mxCell id="N4TtajftBBADn4jUO-1_-8" value="full_adder.vhd" style="rounded=1;arcSize=10;align=left;verticalAlign=top;fontFamily=Courier New;absoluteArcSize=0;fillColor=none;points=[[0,0,0,0,0],[0,0.25,0,0,0],[0,0.5,0,0,0],[0,0.75,0,0,0],[0,1,0,0,0],[0.25,0,0,0,0],[0.25,1,0,0,0],[0.5,0,0,0,0],[0.5,1,0,0,0],[0.75,0,0,0,0],[0.75,1,0,0,0],[1,0,0,0,0],[1,0.25,0,0,0],[1,0.5,0,0,0],[1,0.75,0,0,0],[1,1,0,0,0]];connectable=0;snapToPoint=0;fixDash=0;metaEdit=0;autosize=0;fontSize=10;spacingLeft=5;labelBorderColor=none;spacingTop=0;spacing=2;labelBackgroundColor=none;whiteSpace=wrap;html=1;strokeWidth=1;shadow=0;glass=0;" parent="1" vertex="1">
          <mxGeometry x="800" y="920" width="100" height="100" as="geometry" />
        </mxCell>
        <mxCell id="N4TtajftBBADn4jUO-1_-9" value="b" style="text;html=1;align=left;verticalAlign=middle;whiteSpace=wrap;rounded=0;fontFamily=Courier New;fontSize=10;fillOpacity=100;spacingLeft=5;connectable=0;" parent="1" vertex="1">
          <mxGeometry x="799.36" y="970" width="30.64" height="20" as="geometry" />
        </mxCell>
        <mxCell id="N4TtajftBBADn4jUO-1_-10" value="c_in" style="text;html=1;align=left;verticalAlign=middle;whiteSpace=wrap;rounded=0;fontFamily=Courier New;fontSize=10;fillOpacity=100;spacing=2;spacingLeft=5;connectable=0;" parent="1" vertex="1">
          <mxGeometry x="799.36" y="950" width="30.64" height="20" as="geometry" />
        </mxCell>
        <mxCell id="N4TtajftBBADn4jUO-1_-11" value="" style="endArrow=block;html=1;rounded=0;endFill=1;endSize=5;startSize=5;" parent="1" edge="1">
          <mxGeometry width="50" height="50" relative="1" as="geometry">
            <mxPoint x="740" y="960" as="sourcePoint" />
            <mxPoint x="800" y="960" as="targetPoint" />
          </mxGeometry>
        </mxCell>
        <mxCell id="N4TtajftBBADn4jUO-1_-12" value="" style="endArrow=block;html=1;rounded=0;endFill=1;endSize=5;startSize=5;" parent="1" edge="1">
          <mxGeometry width="50" height="50" relative="1" as="geometry">
            <mxPoint x="780" y="980" as="sourcePoint" />
            <mxPoint x="800" y="980" as="targetPoint" />
          </mxGeometry>
        </mxCell>
        <mxCell id="N4TtajftBBADn4jUO-1_-13" value="c_out" style="text;html=1;align=right;verticalAlign=middle;whiteSpace=wrap;rounded=0;fontFamily=Courier New;fontSize=10;fillOpacity=100;spacing=2;spacingRight=5;connectable=0;" parent="1" vertex="1">
          <mxGeometry x="840" y="950" width="60" height="20" as="geometry" />
        </mxCell>
        <mxCell id="N4TtajftBBADn4jUO-1_-14" value="" style="endArrow=block;html=1;rounded=0;exitX=1;exitY=0.5;exitDx=0;exitDy=0;endFill=1;endSize=5;startSize=5;" parent="1" edge="1">
          <mxGeometry width="50" height="50" relative="1" as="geometry">
            <mxPoint x="900" y="960" as="sourcePoint" />
            <mxPoint x="990" y="960" as="targetPoint" />
          </mxGeometry>
        </mxCell>
        <mxCell id="N4TtajftBBADn4jUO-1_-15" value="sum" style="text;html=1;align=right;verticalAlign=middle;whiteSpace=wrap;rounded=0;fontFamily=Courier New;fontSize=10;fillOpacity=100;spacing=2;spacingRight=5;connectable=0;" parent="1" vertex="1">
          <mxGeometry x="840" y="970" width="60" height="20" as="geometry" />
        </mxCell>
        <mxCell id="N4TtajftBBADn4jUO-1_-16" value="" style="endArrow=none;html=1;rounded=0;exitX=1;exitY=0.5;exitDx=0;exitDy=0;endFill=0;endSize=5;startSize=5;" parent="1" source="N4TtajftBBADn4jUO-1_-15" edge="1">
          <mxGeometry width="50" height="50" relative="1" as="geometry">
            <mxPoint x="980" y="1120" as="sourcePoint" />
            <mxPoint x="920" y="980" as="targetPoint" />
          </mxGeometry>
        </mxCell>
        <mxCell id="N4TtajftBBADn4jUO-1_-17" value="a" style="text;html=1;align=left;verticalAlign=middle;whiteSpace=wrap;rounded=0;fontFamily=Courier New;fontSize=10;fillOpacity=100;spacingLeft=5;connectable=0;" parent="1" vertex="1">
          <mxGeometry x="799.36" y="990" width="30.64" height="20" as="geometry" />
        </mxCell>
        <mxCell id="N4TtajftBBADn4jUO-1_-18" value="" style="endArrow=block;html=1;rounded=0;endFill=1;endSize=5;startSize=5;" parent="1" edge="1">
          <mxGeometry width="50" height="50" relative="1" as="geometry">
            <mxPoint x="760" y="1000" as="sourcePoint" />
            <mxPoint x="800" y="1000" as="targetPoint" />
          </mxGeometry>
        </mxCell>
        <mxCell id="N4TtajftBBADn4jUO-1_-19" value="sig_c0" style="text;html=1;align=center;verticalAlign=middle;whiteSpace=wrap;rounded=0;fontFamily=Courier New;fontSize=10;fillOpacity=100;spacing=2;spacingLeft=0;connectable=0;" parent="1" vertex="1">
          <mxGeometry x="900" y="940" width="50.64" height="20" as="geometry" />
        </mxCell>
        <mxCell id="N4TtajftBBADn4jUO-1_-20" value="" style="endArrow=block;html=1;rounded=0;endFill=1;endSize=5;startSize=5;" parent="1" edge="1">
          <mxGeometry width="50" height="50" relative="1" as="geometry">
            <mxPoint x="920" y="980" as="sourcePoint" />
            <mxPoint x="920" y="1090" as="targetPoint" />
          </mxGeometry>
        </mxCell>
        <mxCell id="N4TtajftBBADn4jUO-1_-21" value="full_adder.vhd" style="rounded=1;arcSize=10;align=left;verticalAlign=top;fontFamily=Courier New;absoluteArcSize=0;fillColor=none;points=[[0,0,0,0,0],[0,0.25,0,0,0],[0,0.5,0,0,0],[0,0.75,0,0,0],[0,1,0,0,0],[0.25,0,0,0,0],[0.25,1,0,0,0],[0.5,0,0,0,0],[0.5,1,0,0,0],[0.75,0,0,0,0],[0.75,1,0,0,0],[1,0,0,0,0],[1,0.25,0,0,0],[1,0.5,0,0,0],[1,0.75,0,0,0],[1,1,0,0,0]];connectable=0;snapToPoint=0;fixDash=0;metaEdit=0;autosize=0;fontSize=10;spacingLeft=5;labelBorderColor=none;spacingTop=0;spacing=2;labelBackgroundColor=none;whiteSpace=wrap;html=1;strokeWidth=1;shadow=0;glass=0;" parent="1" vertex="1">
          <mxGeometry x="990" y="920" width="100" height="100" as="geometry" />
        </mxCell>
        <mxCell id="N4TtajftBBADn4jUO-1_-22" value="b" style="text;html=1;align=left;verticalAlign=middle;whiteSpace=wrap;rounded=0;fontFamily=Courier New;fontSize=10;fillOpacity=100;spacingLeft=5;connectable=0;" parent="1" vertex="1">
          <mxGeometry x="990" y="970" width="30" height="20" as="geometry" />
        </mxCell>
        <mxCell id="N4TtajftBBADn4jUO-1_-23" value="c_in" style="text;html=1;align=left;verticalAlign=middle;whiteSpace=wrap;rounded=0;fontFamily=Courier New;fontSize=10;fillOpacity=100;spacing=2;spacingLeft=5;connectable=0;" parent="1" vertex="1">
          <mxGeometry x="990" y="950" width="30" height="20" as="geometry" />
        </mxCell>
        <mxCell id="N4TtajftBBADn4jUO-1_-24" value="" style="endArrow=block;html=1;rounded=0;endFill=1;endSize=5;startSize=5;" parent="1" edge="1">
          <mxGeometry width="50" height="50" relative="1" as="geometry">
            <mxPoint x="970" y="980" as="sourcePoint" />
            <mxPoint x="990" y="980" as="targetPoint" />
          </mxGeometry>
        </mxCell>
        <mxCell id="N4TtajftBBADn4jUO-1_-25" value="c_out" style="text;html=1;align=right;verticalAlign=middle;whiteSpace=wrap;rounded=0;fontFamily=Courier New;fontSize=10;fillOpacity=100;spacing=2;spacingRight=5;connectable=0;" parent="1" vertex="1">
          <mxGeometry x="1030" y="950" width="60" height="20" as="geometry" />
        </mxCell>
        <mxCell id="N4TtajftBBADn4jUO-1_-26" value="" style="endArrow=block;html=1;rounded=0;exitX=1;exitY=0.5;exitDx=0;exitDy=0;endFill=1;endSize=5;startSize=5;" parent="1" edge="1">
          <mxGeometry width="50" height="50" relative="1" as="geometry">
            <mxPoint x="1090" y="960" as="sourcePoint" />
            <mxPoint x="1180" y="960" as="targetPoint" />
          </mxGeometry>
        </mxCell>
        <mxCell id="N4TtajftBBADn4jUO-1_-27" value="sum" style="text;html=1;align=right;verticalAlign=middle;whiteSpace=wrap;rounded=0;fontFamily=Courier New;fontSize=10;fillOpacity=100;spacing=2;spacingRight=5;connectable=0;" parent="1" vertex="1">
          <mxGeometry x="1030" y="970" width="60" height="20" as="geometry" />
        </mxCell>
        <mxCell id="N4TtajftBBADn4jUO-1_-28" value="" style="endArrow=none;html=1;rounded=0;exitX=1;exitY=0.5;exitDx=0;exitDy=0;endFill=0;endSize=5;startSize=5;" parent="1" source="N4TtajftBBADn4jUO-1_-27" edge="1">
          <mxGeometry width="50" height="50" relative="1" as="geometry">
            <mxPoint x="1170" y="1120" as="sourcePoint" />
            <mxPoint x="1110" y="980" as="targetPoint" />
          </mxGeometry>
        </mxCell>
        <mxCell id="N4TtajftBBADn4jUO-1_-29" value="a" style="text;html=1;align=left;verticalAlign=middle;whiteSpace=wrap;rounded=0;fontFamily=Courier New;fontSize=10;fillOpacity=100;spacingLeft=5;connectable=0;" parent="1" vertex="1">
          <mxGeometry x="990" y="990" width="30.64" height="20" as="geometry" />
        </mxCell>
        <mxCell id="N4TtajftBBADn4jUO-1_-30" value="" style="endArrow=block;html=1;rounded=0;endFill=1;endSize=5;startSize=5;" parent="1" edge="1">
          <mxGeometry width="50" height="50" relative="1" as="geometry">
            <mxPoint x="950" y="1000" as="sourcePoint" />
            <mxPoint x="990" y="1000" as="targetPoint" />
          </mxGeometry>
        </mxCell>
        <mxCell id="N4TtajftBBADn4jUO-1_-31" value="sig_c1" style="text;html=1;align=center;verticalAlign=middle;whiteSpace=wrap;rounded=0;fontFamily=Courier New;fontSize=10;fillOpacity=100;spacing=2;spacingLeft=0;connectable=0;" parent="1" vertex="1">
          <mxGeometry x="1090" y="940" width="50.64" height="20" as="geometry" />
        </mxCell>
        <mxCell id="N4TtajftBBADn4jUO-1_-32" value="" style="endArrow=block;html=1;rounded=0;endFill=1;endSize=5;startSize=5;" parent="1" edge="1">
          <mxGeometry width="50" height="50" relative="1" as="geometry">
            <mxPoint x="1110" y="980" as="sourcePoint" />
            <mxPoint x="1110" y="1090" as="targetPoint" />
          </mxGeometry>
        </mxCell>
        <mxCell id="N4TtajftBBADn4jUO-1_-33" value="" style="endArrow=none;html=1;rounded=0;endFill=0;endSize=5;startSize=5;" parent="1" edge="1">
          <mxGeometry width="50" height="50" relative="1" as="geometry">
            <mxPoint x="970" y="880" as="sourcePoint" />
            <mxPoint x="970" y="980" as="targetPoint" />
          </mxGeometry>
        </mxCell>
        <mxCell id="N4TtajftBBADn4jUO-1_-34" value="" style="endArrow=none;html=1;rounded=0;endFill=0;endSize=5;startSize=5;" parent="1" edge="1">
          <mxGeometry width="50" height="50" relative="1" as="geometry">
            <mxPoint x="950" y="880" as="sourcePoint" />
            <mxPoint x="950" y="1000" as="targetPoint" />
          </mxGeometry>
        </mxCell>
        <mxCell id="N4TtajftBBADn4jUO-1_-35" value="full_adder.vhd" style="rounded=1;arcSize=10;align=left;verticalAlign=top;fontFamily=Courier New;absoluteArcSize=0;fillColor=none;points=[[0,0,0,0,0],[0,0.25,0,0,0],[0,0.5,0,0,0],[0,0.75,0,0,0],[0,1,0,0,0],[0.25,0,0,0,0],[0.25,1,0,0,0],[0.5,0,0,0,0],[0.5,1,0,0,0],[0.75,0,0,0,0],[0.75,1,0,0,0],[1,0,0,0,0],[1,0.25,0,0,0],[1,0.5,0,0,0],[1,0.75,0,0,0],[1,1,0,0,0]];connectable=0;snapToPoint=0;fixDash=0;metaEdit=0;autosize=0;fontSize=10;spacingLeft=5;labelBorderColor=none;spacingTop=0;spacing=2;labelBackgroundColor=none;whiteSpace=wrap;html=1;strokeWidth=1;shadow=0;glass=0;" parent="1" vertex="1">
          <mxGeometry x="1180" y="920" width="100" height="100" as="geometry" />
        </mxCell>
        <mxCell id="N4TtajftBBADn4jUO-1_-36" value="b" style="text;html=1;align=left;verticalAlign=middle;whiteSpace=wrap;rounded=0;fontFamily=Courier New;fontSize=10;fillOpacity=100;spacingLeft=5;connectable=0;" parent="1" vertex="1">
          <mxGeometry x="1180" y="970" width="30" height="20" as="geometry" />
        </mxCell>
        <mxCell id="N4TtajftBBADn4jUO-1_-37" value="c_in" style="text;html=1;align=left;verticalAlign=middle;whiteSpace=wrap;rounded=0;fontFamily=Courier New;fontSize=10;fillOpacity=100;spacing=2;spacingLeft=5;connectable=0;" parent="1" vertex="1">
          <mxGeometry x="1180" y="950" width="30" height="20" as="geometry" />
        </mxCell>
        <mxCell id="N4TtajftBBADn4jUO-1_-38" value="" style="endArrow=block;html=1;rounded=0;endFill=1;endSize=5;startSize=5;" parent="1" edge="1">
          <mxGeometry width="50" height="50" relative="1" as="geometry">
            <mxPoint x="1160" y="980" as="sourcePoint" />
            <mxPoint x="1180" y="980" as="targetPoint" />
          </mxGeometry>
        </mxCell>
        <mxCell id="N4TtajftBBADn4jUO-1_-39" value="c_out" style="text;html=1;align=right;verticalAlign=middle;whiteSpace=wrap;rounded=0;fontFamily=Courier New;fontSize=10;fillOpacity=100;spacing=2;spacingRight=5;connectable=0;" parent="1" vertex="1">
          <mxGeometry x="1220" y="950" width="60" height="20" as="geometry" />
        </mxCell>
        <mxCell id="N4TtajftBBADn4jUO-1_-40" value="" style="endArrow=block;html=1;rounded=0;exitX=1;exitY=0.5;exitDx=0;exitDy=0;endFill=1;endSize=5;startSize=5;" parent="1" edge="1">
          <mxGeometry width="50" height="50" relative="1" as="geometry">
            <mxPoint x="1280" y="960" as="sourcePoint" />
            <mxPoint x="1370" y="960" as="targetPoint" />
          </mxGeometry>
        </mxCell>
        <mxCell id="N4TtajftBBADn4jUO-1_-41" value="sum" style="text;html=1;align=right;verticalAlign=middle;whiteSpace=wrap;rounded=0;fontFamily=Courier New;fontSize=10;fillOpacity=100;spacing=2;spacingRight=5;connectable=0;" parent="1" vertex="1">
          <mxGeometry x="1220" y="970" width="60" height="20" as="geometry" />
        </mxCell>
        <mxCell id="N4TtajftBBADn4jUO-1_-42" value="" style="endArrow=none;html=1;rounded=0;exitX=1;exitY=0.5;exitDx=0;exitDy=0;endFill=0;endSize=5;startSize=5;" parent="1" source="N4TtajftBBADn4jUO-1_-41" edge="1">
          <mxGeometry width="50" height="50" relative="1" as="geometry">
            <mxPoint x="1360" y="1120" as="sourcePoint" />
            <mxPoint x="1300" y="980" as="targetPoint" />
          </mxGeometry>
        </mxCell>
        <mxCell id="N4TtajftBBADn4jUO-1_-43" value="a" style="text;html=1;align=left;verticalAlign=middle;whiteSpace=wrap;rounded=0;fontFamily=Courier New;fontSize=10;fillOpacity=100;spacingLeft=5;connectable=0;" parent="1" vertex="1">
          <mxGeometry x="1180" y="990" width="30.64" height="20" as="geometry" />
        </mxCell>
        <mxCell id="N4TtajftBBADn4jUO-1_-44" value="" style="endArrow=block;html=1;rounded=0;endFill=1;endSize=5;startSize=5;" parent="1" edge="1">
          <mxGeometry width="50" height="50" relative="1" as="geometry">
            <mxPoint x="1140" y="1000" as="sourcePoint" />
            <mxPoint x="1180" y="1000" as="targetPoint" />
          </mxGeometry>
        </mxCell>
        <mxCell id="N4TtajftBBADn4jUO-1_-45" value="sig_c2" style="text;html=1;align=center;verticalAlign=middle;whiteSpace=wrap;rounded=0;fontFamily=Courier New;fontSize=10;fillOpacity=100;spacing=2;spacingLeft=0;connectable=0;" parent="1" vertex="1">
          <mxGeometry x="1280" y="940" width="50.64" height="20" as="geometry" />
        </mxCell>
        <mxCell id="N4TtajftBBADn4jUO-1_-46" value="" style="endArrow=block;html=1;rounded=0;endFill=1;endSize=5;startSize=5;" parent="1" edge="1">
          <mxGeometry width="50" height="50" relative="1" as="geometry">
            <mxPoint x="1300" y="980" as="sourcePoint" />
            <mxPoint x="1300" y="1090" as="targetPoint" />
          </mxGeometry>
        </mxCell>
        <mxCell id="N4TtajftBBADn4jUO-1_-47" value="" style="endArrow=none;html=1;rounded=0;endFill=0;endSize=5;startSize=5;" parent="1" edge="1">
          <mxGeometry width="50" height="50" relative="1" as="geometry">
            <mxPoint x="1160" y="880" as="sourcePoint" />
            <mxPoint x="1160" y="980" as="targetPoint" />
          </mxGeometry>
        </mxCell>
        <mxCell id="N4TtajftBBADn4jUO-1_-48" value="" style="endArrow=none;html=1;rounded=0;endFill=0;endSize=5;startSize=5;" parent="1" edge="1">
          <mxGeometry width="50" height="50" relative="1" as="geometry">
            <mxPoint x="1140" y="880" as="sourcePoint" />
            <mxPoint x="1140" y="1000" as="targetPoint" />
          </mxGeometry>
        </mxCell>
        <mxCell id="N4TtajftBBADn4jUO-1_-49" value="full_adder.vhd" style="rounded=1;arcSize=10;align=left;verticalAlign=top;fontFamily=Courier New;absoluteArcSize=0;fillColor=none;points=[[0,0,0,0,0],[0,0.25,0,0,0],[0,0.5,0,0,0],[0,0.75,0,0,0],[0,1,0,0,0],[0.25,0,0,0,0],[0.25,1,0,0,0],[0.5,0,0,0,0],[0.5,1,0,0,0],[0.75,0,0,0,0],[0.75,1,0,0,0],[1,0,0,0,0],[1,0.25,0,0,0],[1,0.5,0,0,0],[1,0.75,0,0,0],[1,1,0,0,0]];connectable=0;snapToPoint=0;fixDash=0;metaEdit=0;autosize=0;fontSize=10;spacingLeft=5;labelBorderColor=none;spacingTop=0;spacing=2;labelBackgroundColor=none;whiteSpace=wrap;html=1;strokeWidth=1;shadow=0;glass=0;" parent="1" vertex="1">
          <mxGeometry x="1370" y="920" width="100" height="100" as="geometry" />
        </mxCell>
        <mxCell id="N4TtajftBBADn4jUO-1_-50" value="b" style="text;html=1;align=left;verticalAlign=middle;whiteSpace=wrap;rounded=0;fontFamily=Courier New;fontSize=10;fillOpacity=100;spacingLeft=5;connectable=0;" parent="1" vertex="1">
          <mxGeometry x="1370" y="970" width="30" height="20" as="geometry" />
        </mxCell>
        <mxCell id="N4TtajftBBADn4jUO-1_-51" value="c_in" style="text;html=1;align=left;verticalAlign=middle;whiteSpace=wrap;rounded=0;fontFamily=Courier New;fontSize=10;fillOpacity=100;spacing=2;spacingLeft=5;connectable=0;" parent="1" vertex="1">
          <mxGeometry x="1370" y="950" width="30" height="20" as="geometry" />
        </mxCell>
        <mxCell id="N4TtajftBBADn4jUO-1_-52" value="" style="endArrow=block;html=1;rounded=0;endFill=1;endSize=5;startSize=5;" parent="1" edge="1">
          <mxGeometry width="50" height="50" relative="1" as="geometry">
            <mxPoint x="1350" y="980" as="sourcePoint" />
            <mxPoint x="1370" y="980" as="targetPoint" />
          </mxGeometry>
        </mxCell>
        <mxCell id="N4TtajftBBADn4jUO-1_-53" value="c_out" style="text;html=1;align=right;verticalAlign=middle;whiteSpace=wrap;rounded=0;fontFamily=Courier New;fontSize=10;fillOpacity=100;spacing=2;spacingRight=5;connectable=0;" parent="1" vertex="1">
          <mxGeometry x="1410" y="950" width="60" height="20" as="geometry" />
        </mxCell>
        <mxCell id="N4TtajftBBADn4jUO-1_-54" value="" style="endArrow=block;html=1;rounded=0;exitX=1;exitY=0.5;exitDx=0;exitDy=0;endFill=1;endSize=5;startSize=5;" parent="1" source="N4TtajftBBADn4jUO-1_-53" edge="1">
          <mxGeometry width="50" height="50" relative="1" as="geometry">
            <mxPoint x="1549.3600000000001" y="1100" as="sourcePoint" />
            <mxPoint x="1550" y="960" as="targetPoint" />
          </mxGeometry>
        </mxCell>
        <mxCell id="N4TtajftBBADn4jUO-1_-55" value="sum" style="text;html=1;align=right;verticalAlign=middle;whiteSpace=wrap;rounded=0;fontFamily=Courier New;fontSize=10;fillOpacity=100;spacing=2;spacingRight=5;connectable=0;" parent="1" vertex="1">
          <mxGeometry x="1410" y="970" width="60" height="20" as="geometry" />
        </mxCell>
        <mxCell id="N4TtajftBBADn4jUO-1_-56" value="" style="endArrow=none;html=1;rounded=0;exitX=1;exitY=0.5;exitDx=0;exitDy=0;endFill=0;endSize=5;startSize=5;" parent="1" source="N4TtajftBBADn4jUO-1_-55" edge="1">
          <mxGeometry width="50" height="50" relative="1" as="geometry">
            <mxPoint x="1550" y="1120" as="sourcePoint" />
            <mxPoint x="1490" y="980" as="targetPoint" />
          </mxGeometry>
        </mxCell>
        <mxCell id="N4TtajftBBADn4jUO-1_-57" value="a" style="text;html=1;align=left;verticalAlign=middle;whiteSpace=wrap;rounded=0;fontFamily=Courier New;fontSize=10;fillOpacity=100;spacingLeft=5;connectable=0;" parent="1" vertex="1">
          <mxGeometry x="1370" y="990" width="30.64" height="20" as="geometry" />
        </mxCell>
        <mxCell id="N4TtajftBBADn4jUO-1_-58" value="" style="endArrow=block;html=1;rounded=0;endFill=1;endSize=5;startSize=5;" parent="1" edge="1">
          <mxGeometry width="50" height="50" relative="1" as="geometry">
            <mxPoint x="1330" y="1000" as="sourcePoint" />
            <mxPoint x="1370" y="1000" as="targetPoint" />
          </mxGeometry>
        </mxCell>
        <mxCell id="N4TtajftBBADn4jUO-1_-60" value="" style="endArrow=block;html=1;rounded=0;endFill=1;endSize=5;startSize=5;" parent="1" edge="1">
          <mxGeometry width="50" height="50" relative="1" as="geometry">
            <mxPoint x="1490" y="980" as="sourcePoint" />
            <mxPoint x="1490" y="1090" as="targetPoint" />
          </mxGeometry>
        </mxCell>
        <mxCell id="N4TtajftBBADn4jUO-1_-61" value="" style="endArrow=none;html=1;rounded=0;endFill=0;endSize=5;startSize=5;" parent="1" edge="1">
          <mxGeometry width="50" height="50" relative="1" as="geometry">
            <mxPoint x="1350" y="880" as="sourcePoint" />
            <mxPoint x="1350" y="980" as="targetPoint" />
          </mxGeometry>
        </mxCell>
        <mxCell id="N4TtajftBBADn4jUO-1_-62" value="" style="endArrow=none;html=1;rounded=0;endFill=0;endSize=5;startSize=5;" parent="1" edge="1">
          <mxGeometry width="50" height="50" relative="1" as="geometry">
            <mxPoint x="1330" y="880" as="sourcePoint" />
            <mxPoint x="1330" y="1000" as="targetPoint" />
          </mxGeometry>
        </mxCell>
        <mxCell id="N4TtajftBBADn4jUO-1_-63" value="FA2" style="text;html=1;align=center;verticalAlign=middle;whiteSpace=wrap;rounded=0;fontFamily=Courier New;fontSize=10;fillOpacity=100;spacing=2;spacingRight=5;connectable=0;" parent="1" vertex="1">
          <mxGeometry x="1200" y="1000" width="60" height="20" as="geometry" />
        </mxCell>
        <mxCell id="N4TtajftBBADn4jUO-1_-64" value="FA3" style="text;html=1;align=center;verticalAlign=middle;whiteSpace=wrap;rounded=0;fontFamily=Courier New;fontSize=10;fillOpacity=100;spacing=2;spacingRight=5;connectable=0;" parent="1" vertex="1">
          <mxGeometry x="1390" y="1000" width="60" height="20" as="geometry" />
        </mxCell>
        <mxCell id="N4TtajftBBADn4jUO-1_-65" value="FA1" style="text;html=1;align=center;verticalAlign=middle;whiteSpace=wrap;rounded=0;fontFamily=Courier New;fontSize=10;fillOpacity=100;spacing=2;spacingRight=5;connectable=0;" parent="1" vertex="1">
          <mxGeometry x="1010" y="1000" width="60" height="20" as="geometry" />
        </mxCell>
        <mxCell id="N4TtajftBBADn4jUO-1_-66" value="FA0" style="text;html=1;align=center;verticalAlign=middle;whiteSpace=wrap;rounded=0;fontFamily=Courier New;fontSize=10;fillOpacity=100;spacing=2;spacingRight=5;connectable=0;" parent="1" vertex="1">
          <mxGeometry x="820" y="1000" width="60" height="20" as="geometry" />
        </mxCell>
        <mxCell id="N4TtajftBBADn4jUO-1_-68" value="c_in" style="text;html=1;align=left;verticalAlign=middle;whiteSpace=wrap;rounded=0;fontFamily=Courier New;fontSize=10;fillOpacity=100;spacing=2;spacingLeft=0;connectable=0;" parent="1" vertex="1">
          <mxGeometry x="675" y="950" width="35" height="20" as="geometry" />
        </mxCell>
        <mxCell id="N4TtajftBBADn4jUO-1_-69" value="" style="endArrow=block;html=1;rounded=0;endFill=1;endSize=5;startSize=5;" parent="1" edge="1">
          <mxGeometry width="50" height="50" relative="1" as="geometry">
            <mxPoint x="710" y="960" as="sourcePoint" />
            <mxPoint x="740" y="960" as="targetPoint" />
          </mxGeometry>
        </mxCell>
        <mxCell id="N4TtajftBBADn4jUO-1_-74" value="c_out" style="text;html=1;align=left;verticalAlign=middle;whiteSpace=wrap;rounded=0;fontFamily=Courier New;fontSize=10;fillOpacity=100;spacing=2;spacingLeft=5;connectable=0;" parent="1" vertex="1">
          <mxGeometry x="1550" y="950" width="59" height="20" as="geometry" />
        </mxCell>
        <mxCell id="N4TtajftBBADn4jUO-1_-75" value="" style="endArrow=block;html=1;rounded=0;endFill=1;endSize=5;startSize=5;" parent="1" edge="1">
          <mxGeometry width="50" height="50" relative="1" as="geometry">
            <mxPoint x="970" y="850" as="sourcePoint" />
            <mxPoint x="970" y="880" as="targetPoint" />
          </mxGeometry>
        </mxCell>
        <mxCell id="N4TtajftBBADn4jUO-1_-76" value="b(1)" style="text;html=1;align=center;verticalAlign=middle;whiteSpace=wrap;rounded=0;fontFamily=Courier New;fontSize=10;fillOpacity=100;spacing=2;spacingLeft=0;connectable=0;" parent="1" vertex="1">
          <mxGeometry x="960" y="830" width="30" height="20" as="geometry" />
        </mxCell>
        <mxCell id="N4TtajftBBADn4jUO-1_-77" value="" style="endArrow=block;html=1;rounded=0;endFill=1;endSize=5;startSize=5;" parent="1" edge="1">
          <mxGeometry width="50" height="50" relative="1" as="geometry">
            <mxPoint x="950" y="840" as="sourcePoint" />
            <mxPoint x="950" y="880" as="targetPoint" />
          </mxGeometry>
        </mxCell>
        <mxCell id="N4TtajftBBADn4jUO-1_-78" value="a(1)" style="text;html=1;align=center;verticalAlign=middle;whiteSpace=wrap;rounded=0;fontFamily=Courier New;fontSize=10;fillOpacity=100;spacing=2;spacingLeft=0;connectable=0;" parent="1" vertex="1">
          <mxGeometry x="930" y="820" width="30" height="20" as="geometry" />
        </mxCell>
        <mxCell id="N4TtajftBBADn4jUO-1_-79" value="" style="endArrow=block;html=1;rounded=0;endFill=1;endSize=5;startSize=5;" parent="1" edge="1">
          <mxGeometry width="50" height="50" relative="1" as="geometry">
            <mxPoint x="1160" y="850" as="sourcePoint" />
            <mxPoint x="1160" y="880" as="targetPoint" />
          </mxGeometry>
        </mxCell>
        <mxCell id="N4TtajftBBADn4jUO-1_-80" value="b(2)" style="text;html=1;align=center;verticalAlign=middle;whiteSpace=wrap;rounded=0;fontFamily=Courier New;fontSize=10;fillOpacity=100;spacing=2;spacingLeft=0;connectable=0;" parent="1" vertex="1">
          <mxGeometry x="1150" y="830" width="30" height="20" as="geometry" />
        </mxCell>
        <mxCell id="N4TtajftBBADn4jUO-1_-81" value="" style="endArrow=block;html=1;rounded=0;endFill=1;endSize=5;startSize=5;" parent="1" edge="1">
          <mxGeometry width="50" height="50" relative="1" as="geometry">
            <mxPoint x="1140" y="840" as="sourcePoint" />
            <mxPoint x="1140" y="880" as="targetPoint" />
          </mxGeometry>
        </mxCell>
        <mxCell id="N4TtajftBBADn4jUO-1_-82" value="a(2)" style="text;html=1;align=center;verticalAlign=middle;whiteSpace=wrap;rounded=0;fontFamily=Courier New;fontSize=10;fillOpacity=100;spacing=2;spacingLeft=0;connectable=0;" parent="1" vertex="1">
          <mxGeometry x="1120" y="820" width="30" height="20" as="geometry" />
        </mxCell>
        <mxCell id="N4TtajftBBADn4jUO-1_-83" value="" style="endArrow=block;html=1;rounded=0;endFill=1;endSize=5;startSize=5;" parent="1" edge="1">
          <mxGeometry width="50" height="50" relative="1" as="geometry">
            <mxPoint x="1350" y="850" as="sourcePoint" />
            <mxPoint x="1350" y="880" as="targetPoint" />
          </mxGeometry>
        </mxCell>
        <mxCell id="N4TtajftBBADn4jUO-1_-84" value="b(3)" style="text;html=1;align=center;verticalAlign=middle;whiteSpace=wrap;rounded=0;fontFamily=Courier New;fontSize=10;fillOpacity=100;spacing=2;spacingLeft=0;connectable=0;" parent="1" vertex="1">
          <mxGeometry x="1340" y="830" width="30" height="20" as="geometry" />
        </mxCell>
        <mxCell id="N4TtajftBBADn4jUO-1_-85" value="" style="endArrow=block;html=1;rounded=0;endFill=1;endSize=5;startSize=5;" parent="1" edge="1">
          <mxGeometry width="50" height="50" relative="1" as="geometry">
            <mxPoint x="1330" y="840" as="sourcePoint" />
            <mxPoint x="1330" y="880" as="targetPoint" />
          </mxGeometry>
        </mxCell>
        <mxCell id="N4TtajftBBADn4jUO-1_-86" value="a(3)" style="text;html=1;align=center;verticalAlign=middle;whiteSpace=wrap;rounded=0;fontFamily=Courier New;fontSize=10;fillOpacity=100;spacing=2;spacingLeft=0;connectable=0;" parent="1" vertex="1">
          <mxGeometry x="1310" y="820" width="30" height="20" as="geometry" />
        </mxCell>
        <mxCell id="N4TtajftBBADn4jUO-1_-87" value="result(3)" style="text;html=1;align=center;verticalAlign=middle;whiteSpace=wrap;rounded=0;fontFamily=Courier New;fontSize=10;fillOpacity=100;spacing=2;spacingLeft=5;connectable=0;" parent="1" vertex="1">
          <mxGeometry x="1480" y="1080" width="80" height="20" as="geometry" />
        </mxCell>
        <mxCell id="N4TtajftBBADn4jUO-1_-88" value="result(2)" style="text;html=1;align=center;verticalAlign=middle;whiteSpace=wrap;rounded=0;fontFamily=Courier New;fontSize=10;fillOpacity=100;spacing=2;spacingLeft=5;connectable=0;" parent="1" vertex="1">
          <mxGeometry x="1290" y="1080" width="80" height="20" as="geometry" />
        </mxCell>
        <mxCell id="N4TtajftBBADn4jUO-1_-89" value="result(1)" style="text;html=1;align=center;verticalAlign=middle;whiteSpace=wrap;rounded=0;fontFamily=Courier New;fontSize=10;fillOpacity=100;spacing=2;spacingLeft=5;connectable=0;" parent="1" vertex="1">
          <mxGeometry x="1100" y="1080" width="80" height="20" as="geometry" />
        </mxCell>
        <mxCell id="N4TtajftBBADn4jUO-1_-90" value="result(0)" style="text;html=1;align=center;verticalAlign=middle;whiteSpace=wrap;rounded=0;fontFamily=Courier New;fontSize=10;fillOpacity=100;spacing=2;spacingLeft=5;connectable=0;" parent="1" vertex="1">
          <mxGeometry x="910" y="1080" width="80" height="20" as="geometry" />
        </mxCell>
        <mxCell id="zm5g7ncn9EhyciJHYUPz-1" value="" style="endArrow=none;html=1;rounded=0;endFill=0;endSize=5;startSize=5;" parent="1" edge="1">
          <mxGeometry width="50" height="50" relative="1" as="geometry">
            <mxPoint x="780" y="880" as="sourcePoint" />
            <mxPoint x="780" y="980" as="targetPoint" />
          </mxGeometry>
        </mxCell>
        <mxCell id="zm5g7ncn9EhyciJHYUPz-2" value="" style="endArrow=none;html=1;rounded=0;endFill=0;endSize=5;startSize=5;" parent="1" edge="1">
          <mxGeometry width="50" height="50" relative="1" as="geometry">
            <mxPoint x="760" y="880" as="sourcePoint" />
            <mxPoint x="760" y="1000" as="targetPoint" />
          </mxGeometry>
        </mxCell>
        <mxCell id="zm5g7ncn9EhyciJHYUPz-3" value="" style="endArrow=block;html=1;rounded=0;endFill=1;endSize=5;startSize=5;" parent="1" edge="1">
          <mxGeometry width="50" height="50" relative="1" as="geometry">
            <mxPoint x="780" y="850" as="sourcePoint" />
            <mxPoint x="780" y="880" as="targetPoint" />
          </mxGeometry>
        </mxCell>
        <mxCell id="zm5g7ncn9EhyciJHYUPz-4" value="" style="endArrow=block;html=1;rounded=0;endFill=1;endSize=5;startSize=5;" parent="1" edge="1">
          <mxGeometry width="50" height="50" relative="1" as="geometry">
            <mxPoint x="760" y="840" as="sourcePoint" />
            <mxPoint x="760" y="880" as="targetPoint" />
          </mxGeometry>
        </mxCell>
        <mxCell id="zm5g7ncn9EhyciJHYUPz-5" value="a(0)" style="text;html=1;align=center;verticalAlign=middle;whiteSpace=wrap;rounded=0;fontFamily=Courier New;fontSize=10;fillOpacity=100;spacing=2;spacingLeft=0;connectable=0;" parent="1" vertex="1">
          <mxGeometry x="740" y="820" width="30" height="20" as="geometry" />
        </mxCell>
        <mxCell id="zm5g7ncn9EhyciJHYUPz-6" value="b(0)" style="text;html=1;align=center;verticalAlign=middle;whiteSpace=wrap;rounded=0;fontFamily=Courier New;fontSize=10;fillOpacity=100;spacing=2;spacingLeft=0;connectable=0;" parent="1" vertex="1">
          <mxGeometry x="770" y="830" width="30" height="20" as="geometry" />
        </mxCell>
        <mxCell id="zm5g7ncn9EhyciJHYUPz-7" value="&lt;h1&gt;Export PNG&lt;/h1&gt;&lt;p&gt;To export PNG file, select figure, then in menu&lt;br&gt;&lt;/p&gt;&lt;p&gt;File &amp;gt; Export as &amp;gt; PNG...&lt;br&gt;&lt;/p&gt;&lt;p&gt;select&lt;/p&gt;&lt;p&gt;Zoom: 150%&lt;br&gt;Selection only: check&lt;/p&gt;" style="text;html=1;spacing=5;spacingTop=-20;whiteSpace=wrap;overflow=hidden;rounded=0;connectable=0;fillColor=#f8cecc;strokeColor=#b85450;" parent="1" vertex="1">
          <mxGeometry x="-660" y="75" width="270" height="180" as="geometry" />
        </mxCell>
        <mxCell id="zm5g7ncn9EhyciJHYUPz-8" value="7-segment display" style="text;html=1;align=center;verticalAlign=middle;whiteSpace=wrap;rounded=0;connectable=0;fontSize=14;fontStyle=1" parent="1" vertex="1">
          <mxGeometry x="-240" y="50" width="170" height="30" as="geometry" />
        </mxCell>
        <mxCell id="zm5g7ncn9EhyciJHYUPz-9" value="Binary adder" style="text;html=1;align=center;verticalAlign=middle;whiteSpace=wrap;rounded=0;connectable=0;fontSize=14;fontStyle=1" parent="1" vertex="1">
          <mxGeometry x="-240" y="340" width="170" height="30" as="geometry" />
        </mxCell>
        <mxCell id="zm5g7ncn9EhyciJHYUPz-11" value="bin2seg.vhd" style="rounded=1;arcSize=10;align=left;verticalAlign=top;fontFamily=Courier New;absoluteArcSize=0;fillColor=none;points=[[0,0,0,0,0],[0,0.25,0,0,0],[0,0.5,0,0,0],[0,0.75,0,0,0],[0,1,0,0,0],[0.25,0,0,0,0],[0.25,1,0,0,0],[0.5,0,0,0,0],[0.5,1,0,0,0],[0.75,0,0,0,0],[0.75,1,0,0,0],[1,0,0,0,0],[1,0.25,0,0,0],[1,0.5,0,0,0],[1,0.75,0,0,0],[1,1,0,0,0]];connectable=0;snapToPoint=0;fixDash=0;metaEdit=0;autosize=0;fontSize=10;spacingLeft=5;labelBorderColor=none;spacingTop=0;spacing=2;labelBackgroundColor=none;whiteSpace=wrap;html=1;strokeWidth=1;shadow=0;glass=0;" parent="1" vertex="1">
          <mxGeometry x="1039.5900000000001" y="480" width="120" height="80" as="geometry" />
        </mxCell>
        <mxCell id="zm5g7ncn9EhyciJHYUPz-12" value="&lt;div style=&quot;line-height: 100%;&quot; align=&quot;left&quot;&gt;bin(3:0)&lt;/div&gt;" style="text;html=1;align=left;verticalAlign=middle;whiteSpace=wrap;rounded=0;fontFamily=Courier New;fontSize=10;fillOpacity=100;spacingLeft=5;connectable=0;" parent="1" vertex="1">
          <mxGeometry x="1039.5900000000001" y="530" width="60" height="20" as="geometry" />
        </mxCell>
        <mxCell id="zm5g7ncn9EhyciJHYUPz-13" value="clear" style="text;html=1;align=left;verticalAlign=middle;whiteSpace=wrap;rounded=0;fontFamily=Courier New;fontSize=10;fillOpacity=100;spacing=2;spacingLeft=5;connectable=0;" parent="1" vertex="1">
          <mxGeometry x="1039.5900000000001" y="510" width="60" height="20" as="geometry" />
        </mxCell>
        <mxCell id="zm5g7ncn9EhyciJHYUPz-14" value="&lt;div style=&quot;line-height: 100%;&quot;&gt;seg(6:0)&lt;/div&gt;" style="text;html=1;align=right;verticalAlign=middle;whiteSpace=wrap;rounded=0;fontFamily=Courier New;fontSize=10;fillOpacity=100;spacing=2;spacingRight=5;connectable=0;" parent="1" vertex="1">
          <mxGeometry x="1099.5900000000001" y="510" width="60" height="20" as="geometry" />
        </mxCell>
        <mxCell id="zm5g7ncn9EhyciJHYUPz-15" value="" style="endArrow=block;html=1;rounded=0;exitX=1;exitY=0.5;exitDx=0;exitDy=0;endFill=1;endSize=5;startSize=5;" parent="1" source="zm5g7ncn9EhyciJHYUPz-14" edge="1">
          <mxGeometry width="50" height="50" relative="1" as="geometry">
            <mxPoint x="1213.95" y="660" as="sourcePoint" />
            <mxPoint x="1300" y="520" as="targetPoint" />
          </mxGeometry>
        </mxCell>
        <mxCell id="zm5g7ncn9EhyciJHYUPz-16" value="" style="endArrow=block;html=1;rounded=0;endFill=1;endSize=5;startSize=5;" parent="1" edge="1">
          <mxGeometry width="50" height="50" relative="1" as="geometry">
            <mxPoint x="840" y="520" as="sourcePoint" />
            <mxPoint x="1040" y="520" as="targetPoint" />
          </mxGeometry>
        </mxCell>
        <mxCell id="zm5g7ncn9EhyciJHYUPz-17" value="" style="endArrow=block;html=1;rounded=0;endFill=1;endSize=5;startSize=5;" parent="1" edge="1">
          <mxGeometry width="50" height="50" relative="1" as="geometry">
            <mxPoint x="1020" y="540" as="sourcePoint" />
            <mxPoint x="1040" y="540" as="targetPoint" />
          </mxGeometry>
        </mxCell>
        <mxCell id="zm5g7ncn9EhyciJHYUPz-18" value="" style="endArrow=block;html=1;rounded=0;endFill=1;endSize=5;startSize=5;" parent="1" edge="1">
          <mxGeometry width="50" height="50" relative="1" as="geometry">
            <mxPoint x="1204" y="530" as="sourcePoint" />
            <mxPoint x="1300" y="530" as="targetPoint" />
          </mxGeometry>
        </mxCell>
        <mxCell id="zm5g7ncn9EhyciJHYUPz-19" value="" style="endArrow=block;html=1;rounded=0;endFill=1;orthogonal=1;endSize=5;startSize=5;" parent="1" edge="1">
          <mxGeometry width="50" height="50" relative="1" as="geometry">
            <mxPoint x="1204" y="540" as="sourcePoint" />
            <mxPoint x="1300" y="540" as="targetPoint" />
          </mxGeometry>
        </mxCell>
        <mxCell id="zm5g7ncn9EhyciJHYUPz-20" value="" style="endArrow=block;html=1;rounded=0;endFill=1;orthogonal=1;endSize=5;startSize=5;" parent="1" edge="1">
          <mxGeometry width="50" height="50" relative="1" as="geometry">
            <mxPoint x="1212" y="550" as="sourcePoint" />
            <mxPoint x="1300" y="550" as="targetPoint" />
          </mxGeometry>
        </mxCell>
        <mxCell id="zm5g7ncn9EhyciJHYUPz-21" value="" style="endArrow=block;html=1;rounded=0;endFill=1;endSize=5;startSize=5;" parent="1" edge="1">
          <mxGeometry width="50" height="50" relative="1" as="geometry">
            <mxPoint x="1204" y="510" as="sourcePoint" />
            <mxPoint x="1300" y="510" as="targetPoint" />
          </mxGeometry>
        </mxCell>
        <mxCell id="zm5g7ncn9EhyciJHYUPz-22" value="" style="endArrow=block;html=1;rounded=0;endFill=1;endSize=5;startSize=5;" parent="1" edge="1">
          <mxGeometry width="50" height="50" relative="1" as="geometry">
            <mxPoint x="1204" y="500" as="sourcePoint" />
            <mxPoint x="1300" y="500" as="targetPoint" />
          </mxGeometry>
        </mxCell>
        <mxCell id="zm5g7ncn9EhyciJHYUPz-23" value="" style="endArrow=block;html=1;rounded=0;endFill=1;endSize=5;startSize=5;" parent="1" edge="1">
          <mxGeometry width="50" height="50" relative="1" as="geometry">
            <mxPoint x="1213" y="490" as="sourcePoint" />
            <mxPoint x="1300" y="490" as="targetPoint" />
          </mxGeometry>
        </mxCell>
        <mxCell id="zm5g7ncn9EhyciJHYUPz-24" value="" style="endArrow=none;html=1;rounded=1;curved=0;anchorPointDirection=1;movable=1;resizable=1;rotatable=1;deletable=1;editable=1;locked=0;connectable=1;startFill=1;endFill=1;snapToPoint=0;fixDash=0;ignoreEdge=0;orthogonal=1;jumpStyle=none;shadow=0;" parent="1" edge="1">
          <mxGeometry width="50" height="50" relative="1" as="geometry">
            <mxPoint x="1203.95" y="500" as="sourcePoint" />
            <mxPoint x="1213.95" y="490" as="targetPoint" />
            <Array as="points">
              <mxPoint x="1203.95" y="490" />
            </Array>
          </mxGeometry>
        </mxCell>
        <mxCell id="zm5g7ncn9EhyciJHYUPz-25" value="" style="endArrow=none;html=1;rounded=0;" parent="1" edge="1">
          <mxGeometry width="50" height="50" relative="1" as="geometry">
            <mxPoint x="1203.95" y="540" as="sourcePoint" />
            <mxPoint x="1203.95" y="500" as="targetPoint" />
          </mxGeometry>
        </mxCell>
        <mxCell id="zm5g7ncn9EhyciJHYUPz-26" value="" style="endArrow=none;html=1;rounded=1;curved=0;" parent="1" edge="1">
          <mxGeometry width="50" height="50" relative="1" as="geometry">
            <mxPoint x="1203.95" y="540" as="sourcePoint" />
            <mxPoint x="1213.95" y="550" as="targetPoint" />
            <Array as="points">
              <mxPoint x="1203.95" y="550" />
            </Array>
          </mxGeometry>
        </mxCell>
        <mxCell id="zm5g7ncn9EhyciJHYUPz-28" value="" style="endArrow=block;html=1;rounded=0;endFill=1;endSize=5;startSize=5;" parent="1" edge="1">
          <mxGeometry width="50" height="50" relative="1" as="geometry">
            <mxPoint x="780" y="520" as="sourcePoint" />
            <mxPoint x="840" y="520" as="targetPoint" />
          </mxGeometry>
        </mxCell>
        <mxCell id="zm5g7ncn9EhyciJHYUPz-29" value="BTNC" style="text;html=1;align=left;verticalAlign=middle;whiteSpace=wrap;rounded=0;fontFamily=Courier New;fontSize=10;fillOpacity=100;spacing=2;spacingLeft=0;connectable=0;" parent="1" vertex="1">
          <mxGeometry x="749.59" y="510" width="40" height="20" as="geometry" />
        </mxCell>
        <mxCell id="zm5g7ncn9EhyciJHYUPz-31" value="CA" style="text;html=1;align=left;verticalAlign=middle;whiteSpace=wrap;rounded=0;fontFamily=Courier New;fontSize=10;fillOpacity=100;spacing=2;spacingLeft=5;connectable=0;" parent="1" vertex="1">
          <mxGeometry x="1300" y="480" width="30" height="20" as="geometry" />
        </mxCell>
        <mxCell id="zm5g7ncn9EhyciJHYUPz-32" value="CB" style="text;html=1;align=left;verticalAlign=middle;whiteSpace=wrap;rounded=0;fontFamily=Courier New;fontSize=10;fillOpacity=100;spacing=2;spacingLeft=5;connectable=0;" parent="1" vertex="1">
          <mxGeometry x="1300" y="490" width="30" height="20" as="geometry" />
        </mxCell>
        <mxCell id="zm5g7ncn9EhyciJHYUPz-33" value="CC" style="text;html=1;align=left;verticalAlign=middle;whiteSpace=wrap;rounded=0;fontFamily=Courier New;fontSize=10;fillOpacity=100;spacing=2;spacingLeft=5;connectable=0;" parent="1" vertex="1">
          <mxGeometry x="1300" y="500" width="30" height="20" as="geometry" />
        </mxCell>
        <mxCell id="zm5g7ncn9EhyciJHYUPz-34" value="CD" style="text;html=1;align=left;verticalAlign=middle;whiteSpace=wrap;rounded=0;fontFamily=Courier New;fontSize=10;fillOpacity=100;spacing=2;spacingLeft=5;connectable=0;" parent="1" vertex="1">
          <mxGeometry x="1300" y="510" width="30" height="20" as="geometry" />
        </mxCell>
        <mxCell id="zm5g7ncn9EhyciJHYUPz-35" value="CE" style="text;html=1;align=left;verticalAlign=middle;whiteSpace=wrap;rounded=0;fontFamily=Courier New;fontSize=10;fillOpacity=100;spacing=2;spacingLeft=5;connectable=0;" parent="1" vertex="1">
          <mxGeometry x="1300" y="520" width="30" height="20" as="geometry" />
        </mxCell>
        <mxCell id="zm5g7ncn9EhyciJHYUPz-36" value="CF" style="text;html=1;align=left;verticalAlign=middle;whiteSpace=wrap;rounded=0;fontFamily=Courier New;fontSize=10;fillOpacity=100;spacing=2;spacingLeft=5;connectable=0;" parent="1" vertex="1">
          <mxGeometry x="1300" y="530" width="30" height="20" as="geometry" />
        </mxCell>
        <mxCell id="zm5g7ncn9EhyciJHYUPz-37" value="CG" style="text;html=1;align=left;verticalAlign=middle;whiteSpace=wrap;rounded=0;fontFamily=Courier New;fontSize=10;fillOpacity=100;spacing=2;spacingLeft=5;connectable=0;" parent="1" vertex="1">
          <mxGeometry x="1300" y="540" width="30" height="20" as="geometry" />
        </mxCell>
        <mxCell id="zm5g7ncn9EhyciJHYUPz-38" value="sig_tmp(3:0)" style="text;html=1;align=center;verticalAlign=middle;whiteSpace=wrap;rounded=0;fontFamily=Courier New;fontSize=10;fillOpacity=100;spacing=2;spacingLeft=0;connectable=0;" parent="1" vertex="1">
          <mxGeometry x="1023.95" y="610" width="50" height="20" as="geometry" />
        </mxCell>
        <mxCell id="zm5g7ncn9EhyciJHYUPz-39" value="" style="endArrow=block;html=1;rounded=0;endFill=1;orthogonal=1;endSize=5;startSize=5;" parent="1" edge="1">
          <mxGeometry width="50" height="50" relative="1" as="geometry">
            <mxPoint x="880" y="670" as="sourcePoint" />
            <mxPoint x="1300" y="670" as="targetPoint" />
          </mxGeometry>
        </mxCell>
        <mxCell id="zm5g7ncn9EhyciJHYUPz-40" value="" style="endArrow=none;html=1;rounded=0;startArrow=oval;startFill=1;endSize=4;startSize=4;" parent="1" edge="1">
          <mxGeometry width="50" height="50" relative="1" as="geometry">
            <mxPoint x="880" y="610" as="sourcePoint" />
            <mxPoint x="880" y="670" as="targetPoint" />
          </mxGeometry>
        </mxCell>
        <mxCell id="zm5g7ncn9EhyciJHYUPz-41" value="LED_B(3:0)" style="text;html=1;align=left;verticalAlign=middle;whiteSpace=wrap;rounded=0;fontFamily=Courier New;fontSize=10;fillOpacity=100;spacing=2;spacingLeft=5;connectable=0;" parent="1" vertex="1">
          <mxGeometry x="1300" y="660" width="70" height="20" as="geometry" />
        </mxCell>
        <mxCell id="zm5g7ncn9EhyciJHYUPz-42" value="" style="endArrow=block;html=1;rounded=0;endFill=1;orthogonal=1;endSize=5;startSize=5;" parent="1" edge="1">
          <mxGeometry width="50" height="50" relative="1" as="geometry">
            <mxPoint x="1215" y="710" as="sourcePoint" />
            <mxPoint x="1300" y="710" as="targetPoint" />
          </mxGeometry>
        </mxCell>
        <mxCell id="zm5g7ncn9EhyciJHYUPz-43" value="b&quot;1111_1110&quot;" style="text;html=1;align=left;verticalAlign=middle;whiteSpace=wrap;rounded=0;fontFamily=Courier New;fontSize=10;fillOpacity=100;spacing=2;spacingLeft=0;connectable=0;" parent="1" vertex="1">
          <mxGeometry x="1134.5900000000001" y="700" width="80" height="20" as="geometry" />
        </mxCell>
        <mxCell id="zm5g7ncn9EhyciJHYUPz-44" value="AN(7:0)" style="text;html=1;align=left;verticalAlign=middle;whiteSpace=wrap;rounded=0;fontFamily=Courier New;fontSize=10;fillOpacity=100;spacing=2;spacingLeft=5;connectable=0;" parent="1" vertex="1">
          <mxGeometry x="1300" y="700" width="60.64" height="20" as="geometry" />
        </mxCell>
        <mxCell id="zm5g7ncn9EhyciJHYUPz-45" value="" style="endArrow=block;html=1;rounded=0;endFill=1;orthogonal=1;endSize=5;startSize=5;" parent="1" edge="1">
          <mxGeometry width="50" height="50" relative="1" as="geometry">
            <mxPoint x="1190" y="570" as="sourcePoint" />
            <mxPoint x="1300" y="570" as="targetPoint" />
          </mxGeometry>
        </mxCell>
        <mxCell id="zm5g7ncn9EhyciJHYUPz-46" value="DP" style="text;html=1;align=left;verticalAlign=middle;whiteSpace=wrap;rounded=0;fontFamily=Courier New;fontSize=10;fillOpacity=100;spacing=2;spacingLeft=5;connectable=0;" parent="1" vertex="1">
          <mxGeometry x="1300" y="560" width="30" height="20" as="geometry" />
        </mxCell>
        <mxCell id="zm5g7ncn9EhyciJHYUPz-47" value="&#39;1&#39;" style="text;html=1;align=left;verticalAlign=middle;whiteSpace=wrap;rounded=0;fontFamily=Courier New;fontSize=10;fillOpacity=100;spacing=2;spacingLeft=0;connectable=0;" parent="1" vertex="1">
          <mxGeometry x="1165" y="560" width="25" height="20" as="geometry" />
        </mxCell>
        <mxCell id="zm5g7ncn9EhyciJHYUPz-48" value="" style="verticalLabelPosition=bottom;shadow=0;dashed=0;align=center;html=1;verticalAlign=top;shape=mxgraph.electrical.opto_electronics.7_segment_display_with_dp;pointerEvents=1;fillColor=#FF0000;strokeColor=none;aspect=fixed;" parent="1" vertex="1">
          <mxGeometry x="1374.5900000000001" y="480" width="65.82" height="80" as="geometry" />
        </mxCell>
        <mxCell id="zm5g7ncn9EhyciJHYUPz-50" value="" style="endArrow=block;html=1;rounded=0;endFill=1;endSize=5;startSize=5;" parent="1" edge="1">
          <mxGeometry width="50" height="50" relative="1" as="geometry">
            <mxPoint x="810" y="610" as="sourcePoint" />
            <mxPoint x="840" y="610" as="targetPoint" />
          </mxGeometry>
        </mxCell>
        <mxCell id="zm5g7ncn9EhyciJHYUPz-51" value="SW_B(3:0)" style="text;html=1;align=left;verticalAlign=middle;whiteSpace=wrap;rounded=0;fontFamily=Courier New;fontSize=10;fillOpacity=100;spacing=2;spacingLeft=0;connectable=0;" parent="1" vertex="1">
          <mxGeometry x="750" y="600" width="40" height="20" as="geometry" />
        </mxCell>
        <mxCell id="zm5g7ncn9EhyciJHYUPz-56" value="" style="endArrow=block;html=1;rounded=0;endFill=1;endSize=5;startSize=5;" parent="1" edge="1">
          <mxGeometry width="50" height="50" relative="1" as="geometry">
            <mxPoint x="810" y="630" as="sourcePoint" />
            <mxPoint x="840" y="630" as="targetPoint" />
          </mxGeometry>
        </mxCell>
        <mxCell id="zm5g7ncn9EhyciJHYUPz-57" value="SW_A(3:0)" style="text;html=1;align=left;verticalAlign=middle;whiteSpace=wrap;rounded=0;fontFamily=Courier New;fontSize=10;fillOpacity=100;spacing=2;spacingLeft=0;connectable=0;" parent="1" vertex="1">
          <mxGeometry x="750" y="620" width="40" height="20" as="geometry" />
        </mxCell>
        <mxCell id="zm5g7ncn9EhyciJHYUPz-59" value="" style="endArrow=none;html=1;rounded=0;startArrow=oval;startFill=1;endSize=4;startSize=4;" parent="1" edge="1">
          <mxGeometry width="50" height="50" relative="1" as="geometry">
            <mxPoint x="860" y="630" as="sourcePoint" />
            <mxPoint x="860" y="690" as="targetPoint" />
          </mxGeometry>
        </mxCell>
        <mxCell id="zm5g7ncn9EhyciJHYUPz-62" value="" style="endArrow=block;html=1;rounded=0;endFill=1;orthogonal=1;endSize=5;startSize=5;" parent="1" edge="1">
          <mxGeometry width="50" height="50" relative="1" as="geometry">
            <mxPoint x="860" y="690" as="sourcePoint" />
            <mxPoint x="1300" y="690" as="targetPoint" />
          </mxGeometry>
        </mxCell>
        <mxCell id="zm5g7ncn9EhyciJHYUPz-63" value="LED_A(3:0)" style="text;html=1;align=left;verticalAlign=middle;whiteSpace=wrap;rounded=0;fontFamily=Courier New;fontSize=10;fillOpacity=100;spacing=2;spacingLeft=5;connectable=0;" parent="1" vertex="1">
          <mxGeometry x="1300" y="680" width="70" height="20" as="geometry" />
        </mxCell>
        <mxCell id="zm5g7ncn9EhyciJHYUPz-73" value="adder_4bit.vhd" style="rounded=1;arcSize=10;align=left;verticalAlign=top;fontFamily=Courier New;absoluteArcSize=0;fillColor=none;points=[[0,0,0,0,0],[0,0.25,0,0,0],[0,0.5,0,0,0],[0,0.75,0,0,0],[0,1,0,0,0],[0.25,0,0,0,0],[0.25,1,0,0,0],[0.5,0,0,0,0],[0.5,1,0,0,0],[0.75,0,0,0,0],[0.75,1,0,0,0],[1,0,0,0,0],[1,0.25,0,0,0],[1,0.5,0,0,0],[1,0.75,0,0,0],[1,1,0,0,0]];connectable=0;snapToPoint=0;fixDash=0;metaEdit=0;autosize=0;fontSize=10;spacingLeft=5;labelBorderColor=none;spacingTop=0;spacing=2;labelBackgroundColor=none;whiteSpace=wrap;html=1;strokeWidth=1;shadow=0;glass=0;" parent="1" vertex="1">
          <mxGeometry x="900" y="550" width="100" height="100" as="geometry" />
        </mxCell>
        <mxCell id="zm5g7ncn9EhyciJHYUPz-74" value="b" style="text;html=1;align=left;verticalAlign=middle;whiteSpace=wrap;rounded=0;fontFamily=Courier New;fontSize=10;fillOpacity=100;spacingLeft=5;connectable=0;" parent="1" vertex="1">
          <mxGeometry x="899.36" y="600" width="30.64" height="20" as="geometry" />
        </mxCell>
        <mxCell id="zm5g7ncn9EhyciJHYUPz-75" value="c_in" style="text;html=1;align=left;verticalAlign=middle;whiteSpace=wrap;rounded=0;fontFamily=Courier New;fontSize=10;fillOpacity=100;spacing=2;spacingLeft=5;connectable=0;" parent="1" vertex="1">
          <mxGeometry x="899.36" y="580" width="30.64" height="20" as="geometry" />
        </mxCell>
        <mxCell id="zm5g7ncn9EhyciJHYUPz-76" value="" style="endArrow=block;html=1;rounded=0;endFill=1;endSize=5;startSize=5;" parent="1" edge="1">
          <mxGeometry width="50" height="50" relative="1" as="geometry">
            <mxPoint x="870" y="590" as="sourcePoint" />
            <mxPoint x="900" y="590" as="targetPoint" />
          </mxGeometry>
        </mxCell>
        <mxCell id="zm5g7ncn9EhyciJHYUPz-77" value="" style="endArrow=block;html=1;rounded=0;endFill=1;endSize=5;startSize=5;" parent="1" edge="1">
          <mxGeometry width="50" height="50" relative="1" as="geometry">
            <mxPoint x="840" y="610" as="sourcePoint" />
            <mxPoint x="900" y="610" as="targetPoint" />
          </mxGeometry>
        </mxCell>
        <mxCell id="zm5g7ncn9EhyciJHYUPz-78" value="c_out" style="text;html=1;align=right;verticalAlign=middle;whiteSpace=wrap;rounded=0;fontFamily=Courier New;fontSize=10;fillOpacity=100;spacing=2;spacingRight=5;connectable=0;" parent="1" vertex="1">
          <mxGeometry x="950" y="580" width="50" height="20" as="geometry" />
        </mxCell>
        <mxCell id="zm5g7ncn9EhyciJHYUPz-79" value="result" style="text;html=1;align=right;verticalAlign=middle;whiteSpace=wrap;rounded=0;fontFamily=Courier New;fontSize=10;fillOpacity=100;spacing=2;spacingRight=5;connectable=0;" parent="1" vertex="1">
          <mxGeometry x="950" y="600" width="50" height="20" as="geometry" />
        </mxCell>
        <mxCell id="zm5g7ncn9EhyciJHYUPz-80" value="a" style="text;html=1;align=left;verticalAlign=middle;whiteSpace=wrap;rounded=0;fontFamily=Courier New;fontSize=10;fillOpacity=100;spacingLeft=5;connectable=0;" parent="1" vertex="1">
          <mxGeometry x="899.36" y="620" width="30.64" height="20" as="geometry" />
        </mxCell>
        <mxCell id="zm5g7ncn9EhyciJHYUPz-81" value="" style="endArrow=block;html=1;rounded=0;endFill=1;endSize=5;startSize=5;" parent="1" edge="1">
          <mxGeometry width="50" height="50" relative="1" as="geometry">
            <mxPoint x="840" y="630" as="sourcePoint" />
            <mxPoint x="900" y="630" as="targetPoint" />
          </mxGeometry>
        </mxCell>
        <mxCell id="zm5g7ncn9EhyciJHYUPz-83" value="" style="endArrow=none;html=1;rounded=0;startArrow=none;startFill=0;endSize=4;startSize=4;" parent="1" edge="1">
          <mxGeometry width="50" height="50" relative="1" as="geometry">
            <mxPoint x="1020" y="540" as="sourcePoint" />
            <mxPoint x="1020" y="610" as="targetPoint" />
          </mxGeometry>
        </mxCell>
        <mxCell id="zm5g7ncn9EhyciJHYUPz-84" value="" style="endArrow=none;html=1;rounded=0;endFill=0;endSize=5;startSize=5;" parent="1" edge="1">
          <mxGeometry width="50" height="50" relative="1" as="geometry">
            <mxPoint x="1000" y="610" as="sourcePoint" />
            <mxPoint x="1020" y="610" as="targetPoint" />
          </mxGeometry>
        </mxCell>
        <mxCell id="zm5g7ncn9EhyciJHYUPz-85" value="" style="endArrow=block;html=1;rounded=0;endFill=1;orthogonal=1;endSize=5;startSize=5;" parent="1" edge="1">
          <mxGeometry width="50" height="50" relative="1" as="geometry">
            <mxPoint x="1000" y="590" as="sourcePoint" />
            <mxPoint x="1300" y="590" as="targetPoint" />
          </mxGeometry>
        </mxCell>
        <mxCell id="zm5g7ncn9EhyciJHYUPz-86" value="LED_RED" style="text;html=1;align=left;verticalAlign=middle;whiteSpace=wrap;rounded=0;fontFamily=Courier New;fontSize=10;fillOpacity=100;spacing=2;spacingLeft=5;connectable=0;" parent="1" vertex="1">
          <mxGeometry x="1300" y="580" width="60" height="20" as="geometry" />
        </mxCell>
        <mxCell id="zm5g7ncn9EhyciJHYUPz-88" value="" style="verticalLabelPosition=bottom;shadow=0;dashed=0;align=center;html=1;verticalAlign=top;shape=mxgraph.electrical.opto_electronics.led_2;pointerEvents=1;aspect=fixed;connectable=0;fillColor=#00FF00;" parent="1" vertex="1">
          <mxGeometry x="1381" y="650" width="50" height="35" as="geometry" />
        </mxCell>
        <mxCell id="zm5g7ncn9EhyciJHYUPz-89" value="" style="verticalLabelPosition=bottom;shadow=0;dashed=0;align=center;html=1;verticalAlign=top;shape=mxgraph.electrical.opto_electronics.led_2;pointerEvents=1;aspect=fixed;connectable=0;fillColor=#FF0000;" parent="1" vertex="1">
          <mxGeometry x="1382" y="590" width="50" height="35" as="geometry" />
        </mxCell>
        <mxCell id="zm5g7ncn9EhyciJHYUPz-90" value="&#39;0&#39;" style="text;html=1;align=left;verticalAlign=middle;whiteSpace=wrap;rounded=0;fontFamily=Courier New;fontSize=10;fillOpacity=100;spacing=2;spacingLeft=0;connectable=0;" parent="1" vertex="1">
          <mxGeometry x="845" y="580" width="25" height="20" as="geometry" />
        </mxCell>
        <mxCell id="9wGQk3-cye2_xvNzmPNW-61" value="top_level.vhd" style="rounded=1;arcSize=3;whiteSpace=wrap;html=1;align=left;verticalAlign=top;fontFamily=Courier New;absoluteArcSize=0;fillColor=none;fontSize=10;spacingLeft=5;connectable=0;imageHeight=24;" vertex="1" parent="1">
          <mxGeometry x="30" y="320" width="470.41" height="300" as="geometry" />
        </mxCell>
        <mxCell id="9wGQk3-cye2_xvNzmPNW-62" value="bin2seg.vhd" style="rounded=1;arcSize=10;align=left;verticalAlign=top;fontFamily=Courier New;absoluteArcSize=0;fillColor=none;points=[[0,0,0,0,0],[0,0.25,0,0,0],[0,0.5,0,0,0],[0,0.75,0,0,0],[0,1,0,0,0],[0.25,0,0,0,0],[0.25,1,0,0,0],[0.5,0,0,0,0],[0.5,1,0,0,0],[0.75,0,0,0,0],[0.75,1,0,0,0],[1,0,0,0,0],[1,0.25,0,0,0],[1,0.5,0,0,0],[1,0.75,0,0,0],[1,1,0,0,0]];connectable=0;snapToPoint=0;fixDash=0;metaEdit=0;autosize=0;fontSize=10;spacingLeft=5;labelBorderColor=none;spacingTop=0;spacing=2;labelBackgroundColor=none;whiteSpace=wrap;html=1;strokeWidth=1;shadow=0;glass=0;" vertex="1" parent="1">
          <mxGeometry x="280.0000000000001" y="360" width="120" height="80" as="geometry" />
        </mxCell>
        <mxCell id="9wGQk3-cye2_xvNzmPNW-63" value="&lt;div style=&quot;line-height: 100%;&quot; align=&quot;left&quot;&gt;bin(3:0)&lt;/div&gt;" style="text;html=1;align=left;verticalAlign=middle;whiteSpace=wrap;rounded=0;fontFamily=Courier New;fontSize=10;fillOpacity=100;spacingLeft=5;connectable=0;" vertex="1" parent="1">
          <mxGeometry x="280.0000000000001" y="410" width="60" height="20" as="geometry" />
        </mxCell>
        <mxCell id="9wGQk3-cye2_xvNzmPNW-64" value="clear" style="text;html=1;align=left;verticalAlign=middle;whiteSpace=wrap;rounded=0;fontFamily=Courier New;fontSize=10;fillOpacity=100;spacing=2;spacingLeft=5;connectable=0;" vertex="1" parent="1">
          <mxGeometry x="280.0000000000001" y="390" width="60" height="20" as="geometry" />
        </mxCell>
        <mxCell id="9wGQk3-cye2_xvNzmPNW-65" value="&lt;div style=&quot;line-height: 100%;&quot;&gt;seg(6:0)&lt;/div&gt;" style="text;html=1;align=right;verticalAlign=middle;whiteSpace=wrap;rounded=0;fontFamily=Courier New;fontSize=10;fillOpacity=100;spacing=2;spacingRight=5;connectable=0;" vertex="1" parent="1">
          <mxGeometry x="340.0000000000001" y="390" width="60" height="20" as="geometry" />
        </mxCell>
        <mxCell id="9wGQk3-cye2_xvNzmPNW-66" value="" style="endArrow=block;html=1;rounded=0;exitX=1;exitY=0.5;exitDx=0;exitDy=0;endFill=1;endSize=5;startSize=5;" edge="1" parent="1" source="9wGQk3-cye2_xvNzmPNW-65">
          <mxGeometry width="50" height="50" relative="1" as="geometry">
            <mxPoint x="454.36" y="540" as="sourcePoint" />
            <mxPoint x="540.41" y="400" as="targetPoint" />
          </mxGeometry>
        </mxCell>
        <mxCell id="9wGQk3-cye2_xvNzmPNW-67" value="" style="endArrow=block;html=1;rounded=0;endFill=1;endSize=5;startSize=5;" edge="1" parent="1">
          <mxGeometry width="50" height="50" relative="1" as="geometry">
            <mxPoint x="30" y="400" as="sourcePoint" />
            <mxPoint x="280" y="400" as="targetPoint" />
          </mxGeometry>
        </mxCell>
        <mxCell id="9wGQk3-cye2_xvNzmPNW-68" value="" style="endArrow=block;html=1;rounded=0;endFill=1;endSize=5;startSize=5;" edge="1" parent="1">
          <mxGeometry width="50" height="50" relative="1" as="geometry">
            <mxPoint x="260.40999999999997" y="420" as="sourcePoint" />
            <mxPoint x="280.40999999999997" y="420" as="targetPoint" />
          </mxGeometry>
        </mxCell>
        <mxCell id="9wGQk3-cye2_xvNzmPNW-69" value="" style="endArrow=block;html=1;rounded=0;endFill=1;endSize=5;startSize=5;" edge="1" parent="1">
          <mxGeometry width="50" height="50" relative="1" as="geometry">
            <mxPoint x="444.40999999999997" y="410" as="sourcePoint" />
            <mxPoint x="540.41" y="410" as="targetPoint" />
          </mxGeometry>
        </mxCell>
        <mxCell id="9wGQk3-cye2_xvNzmPNW-70" value="" style="endArrow=block;html=1;rounded=0;endFill=1;orthogonal=1;endSize=5;startSize=5;" edge="1" parent="1">
          <mxGeometry width="50" height="50" relative="1" as="geometry">
            <mxPoint x="444.40999999999997" y="420" as="sourcePoint" />
            <mxPoint x="540.41" y="420" as="targetPoint" />
          </mxGeometry>
        </mxCell>
        <mxCell id="9wGQk3-cye2_xvNzmPNW-71" value="" style="endArrow=block;html=1;rounded=0;endFill=1;orthogonal=1;endSize=5;startSize=5;" edge="1" parent="1">
          <mxGeometry width="50" height="50" relative="1" as="geometry">
            <mxPoint x="452.40999999999997" y="430" as="sourcePoint" />
            <mxPoint x="540.41" y="430" as="targetPoint" />
          </mxGeometry>
        </mxCell>
        <mxCell id="9wGQk3-cye2_xvNzmPNW-72" value="" style="endArrow=block;html=1;rounded=0;endFill=1;endSize=5;startSize=5;" edge="1" parent="1">
          <mxGeometry width="50" height="50" relative="1" as="geometry">
            <mxPoint x="444.40999999999997" y="390" as="sourcePoint" />
            <mxPoint x="540.41" y="390" as="targetPoint" />
          </mxGeometry>
        </mxCell>
        <mxCell id="9wGQk3-cye2_xvNzmPNW-73" value="" style="endArrow=block;html=1;rounded=0;endFill=1;endSize=5;startSize=5;" edge="1" parent="1">
          <mxGeometry width="50" height="50" relative="1" as="geometry">
            <mxPoint x="444.40999999999997" y="380" as="sourcePoint" />
            <mxPoint x="540.41" y="380" as="targetPoint" />
          </mxGeometry>
        </mxCell>
        <mxCell id="9wGQk3-cye2_xvNzmPNW-74" value="" style="endArrow=block;html=1;rounded=0;endFill=1;endSize=5;startSize=5;" edge="1" parent="1">
          <mxGeometry width="50" height="50" relative="1" as="geometry">
            <mxPoint x="453.40999999999997" y="370" as="sourcePoint" />
            <mxPoint x="540.41" y="370" as="targetPoint" />
          </mxGeometry>
        </mxCell>
        <mxCell id="9wGQk3-cye2_xvNzmPNW-75" value="" style="endArrow=none;html=1;rounded=1;curved=0;anchorPointDirection=1;movable=1;resizable=1;rotatable=1;deletable=1;editable=1;locked=0;connectable=1;startFill=1;endFill=1;snapToPoint=0;fixDash=0;ignoreEdge=0;orthogonal=1;jumpStyle=none;shadow=0;" edge="1" parent="1">
          <mxGeometry width="50" height="50" relative="1" as="geometry">
            <mxPoint x="444.36" y="380" as="sourcePoint" />
            <mxPoint x="454.36" y="370" as="targetPoint" />
            <Array as="points">
              <mxPoint x="444.36" y="370" />
            </Array>
          </mxGeometry>
        </mxCell>
        <mxCell id="9wGQk3-cye2_xvNzmPNW-76" value="" style="endArrow=none;html=1;rounded=0;" edge="1" parent="1">
          <mxGeometry width="50" height="50" relative="1" as="geometry">
            <mxPoint x="444.36" y="420" as="sourcePoint" />
            <mxPoint x="444.36" y="380" as="targetPoint" />
          </mxGeometry>
        </mxCell>
        <mxCell id="9wGQk3-cye2_xvNzmPNW-77" value="" style="endArrow=none;html=1;rounded=1;curved=0;" edge="1" parent="1">
          <mxGeometry width="50" height="50" relative="1" as="geometry">
            <mxPoint x="444.36" y="420" as="sourcePoint" />
            <mxPoint x="454.36" y="430" as="targetPoint" />
            <Array as="points">
              <mxPoint x="444.36" y="430" />
            </Array>
          </mxGeometry>
        </mxCell>
        <mxCell id="9wGQk3-cye2_xvNzmPNW-78" value="" style="endArrow=block;html=1;rounded=0;endFill=1;endSize=5;startSize=5;" edge="1" parent="1">
          <mxGeometry width="50" height="50" relative="1" as="geometry">
            <mxPoint x="-29.590000000000032" y="400" as="sourcePoint" />
            <mxPoint x="30.409999999999968" y="400" as="targetPoint" />
          </mxGeometry>
        </mxCell>
        <mxCell id="9wGQk3-cye2_xvNzmPNW-79" value="BTNC" style="text;html=1;align=left;verticalAlign=middle;whiteSpace=wrap;rounded=0;fontFamily=Courier New;fontSize=10;fillOpacity=100;spacing=2;spacingLeft=0;connectable=0;" vertex="1" parent="1">
          <mxGeometry x="-60" y="390" width="40" height="20" as="geometry" />
        </mxCell>
        <mxCell id="9wGQk3-cye2_xvNzmPNW-80" value="CA" style="text;html=1;align=left;verticalAlign=middle;whiteSpace=wrap;rounded=0;fontFamily=Courier New;fontSize=10;fillOpacity=100;spacing=2;spacingLeft=5;connectable=0;" vertex="1" parent="1">
          <mxGeometry x="540.41" y="360" width="30" height="20" as="geometry" />
        </mxCell>
        <mxCell id="9wGQk3-cye2_xvNzmPNW-81" value="CB" style="text;html=1;align=left;verticalAlign=middle;whiteSpace=wrap;rounded=0;fontFamily=Courier New;fontSize=10;fillOpacity=100;spacing=2;spacingLeft=5;connectable=0;" vertex="1" parent="1">
          <mxGeometry x="540.41" y="370" width="30" height="20" as="geometry" />
        </mxCell>
        <mxCell id="9wGQk3-cye2_xvNzmPNW-82" value="CC" style="text;html=1;align=left;verticalAlign=middle;whiteSpace=wrap;rounded=0;fontFamily=Courier New;fontSize=10;fillOpacity=100;spacing=2;spacingLeft=5;connectable=0;" vertex="1" parent="1">
          <mxGeometry x="540.41" y="380" width="30" height="20" as="geometry" />
        </mxCell>
        <mxCell id="9wGQk3-cye2_xvNzmPNW-83" value="CD" style="text;html=1;align=left;verticalAlign=middle;whiteSpace=wrap;rounded=0;fontFamily=Courier New;fontSize=10;fillOpacity=100;spacing=2;spacingLeft=5;connectable=0;" vertex="1" parent="1">
          <mxGeometry x="540.41" y="390" width="30" height="20" as="geometry" />
        </mxCell>
        <mxCell id="9wGQk3-cye2_xvNzmPNW-84" value="CE" style="text;html=1;align=left;verticalAlign=middle;whiteSpace=wrap;rounded=0;fontFamily=Courier New;fontSize=10;fillOpacity=100;spacing=2;spacingLeft=5;connectable=0;" vertex="1" parent="1">
          <mxGeometry x="540.41" y="400" width="30" height="20" as="geometry" />
        </mxCell>
        <mxCell id="9wGQk3-cye2_xvNzmPNW-85" value="CF" style="text;html=1;align=left;verticalAlign=middle;whiteSpace=wrap;rounded=0;fontFamily=Courier New;fontSize=10;fillOpacity=100;spacing=2;spacingLeft=5;connectable=0;" vertex="1" parent="1">
          <mxGeometry x="540.41" y="410" width="30" height="20" as="geometry" />
        </mxCell>
        <mxCell id="9wGQk3-cye2_xvNzmPNW-86" value="CG" style="text;html=1;align=left;verticalAlign=middle;whiteSpace=wrap;rounded=0;fontFamily=Courier New;fontSize=10;fillOpacity=100;spacing=2;spacingLeft=5;connectable=0;" vertex="1" parent="1">
          <mxGeometry x="540.41" y="420" width="30" height="20" as="geometry" />
        </mxCell>
        <mxCell id="9wGQk3-cye2_xvNzmPNW-87" value="sig_tmp(3:0)" style="text;html=1;align=center;verticalAlign=middle;whiteSpace=wrap;rounded=0;fontFamily=Courier New;fontSize=10;fillOpacity=100;spacing=2;spacingLeft=0;connectable=0;" vertex="1" parent="1">
          <mxGeometry x="264.36" y="490" width="50" height="20" as="geometry" />
        </mxCell>
        <mxCell id="9wGQk3-cye2_xvNzmPNW-88" value="" style="endArrow=block;html=1;rounded=0;endFill=1;orthogonal=1;endSize=5;startSize=5;" edge="1" parent="1">
          <mxGeometry width="50" height="50" relative="1" as="geometry">
            <mxPoint x="70" y="550" as="sourcePoint" />
            <mxPoint x="540" y="550" as="targetPoint" />
          </mxGeometry>
        </mxCell>
        <mxCell id="9wGQk3-cye2_xvNzmPNW-89" value="" style="endArrow=none;html=1;rounded=0;startArrow=oval;startFill=1;endSize=4;startSize=4;" edge="1" parent="1">
          <mxGeometry width="50" height="50" relative="1" as="geometry">
            <mxPoint x="70" y="497.5" as="sourcePoint" />
            <mxPoint x="70" y="550" as="targetPoint" />
          </mxGeometry>
        </mxCell>
        <mxCell id="9wGQk3-cye2_xvNzmPNW-90" value="LED_B(3:0)" style="text;html=1;align=left;verticalAlign=middle;whiteSpace=wrap;rounded=0;fontFamily=Courier New;fontSize=10;fillOpacity=100;spacing=2;spacingLeft=5;connectable=0;" vertex="1" parent="1">
          <mxGeometry x="540.41" y="540" width="70" height="20" as="geometry" />
        </mxCell>
        <mxCell id="9wGQk3-cye2_xvNzmPNW-91" value="" style="endArrow=block;html=1;rounded=0;endFill=1;orthogonal=1;endSize=5;startSize=5;" edge="1" parent="1">
          <mxGeometry width="50" height="50" relative="1" as="geometry">
            <mxPoint x="455.40999999999997" y="590" as="sourcePoint" />
            <mxPoint x="540.41" y="590" as="targetPoint" />
          </mxGeometry>
        </mxCell>
        <mxCell id="9wGQk3-cye2_xvNzmPNW-92" value="b&quot;1111_1110&quot;" style="text;html=1;align=left;verticalAlign=middle;whiteSpace=wrap;rounded=0;fontFamily=Courier New;fontSize=10;fillOpacity=100;spacing=2;spacingLeft=0;connectable=0;" vertex="1" parent="1">
          <mxGeometry x="375.0000000000001" y="580" width="80" height="20" as="geometry" />
        </mxCell>
        <mxCell id="9wGQk3-cye2_xvNzmPNW-93" value="AN(7:0)" style="text;html=1;align=left;verticalAlign=middle;whiteSpace=wrap;rounded=0;fontFamily=Courier New;fontSize=10;fillOpacity=100;spacing=2;spacingLeft=5;connectable=0;" vertex="1" parent="1">
          <mxGeometry x="540.41" y="580" width="60.64" height="20" as="geometry" />
        </mxCell>
        <mxCell id="9wGQk3-cye2_xvNzmPNW-94" value="" style="endArrow=block;html=1;rounded=0;endFill=1;orthogonal=1;endSize=5;startSize=5;" edge="1" parent="1">
          <mxGeometry width="50" height="50" relative="1" as="geometry">
            <mxPoint x="430.40999999999997" y="450" as="sourcePoint" />
            <mxPoint x="540.41" y="450" as="targetPoint" />
          </mxGeometry>
        </mxCell>
        <mxCell id="9wGQk3-cye2_xvNzmPNW-95" value="DP" style="text;html=1;align=left;verticalAlign=middle;whiteSpace=wrap;rounded=0;fontFamily=Courier New;fontSize=10;fillOpacity=100;spacing=2;spacingLeft=5;connectable=0;" vertex="1" parent="1">
          <mxGeometry x="540.41" y="440" width="30" height="20" as="geometry" />
        </mxCell>
        <mxCell id="9wGQk3-cye2_xvNzmPNW-96" value="&#39;1&#39;" style="text;html=1;align=left;verticalAlign=middle;whiteSpace=wrap;rounded=0;fontFamily=Courier New;fontSize=10;fillOpacity=100;spacing=2;spacingLeft=0;connectable=0;" vertex="1" parent="1">
          <mxGeometry x="405.40999999999997" y="440" width="25" height="20" as="geometry" />
        </mxCell>
        <mxCell id="9wGQk3-cye2_xvNzmPNW-97" value="" style="verticalLabelPosition=bottom;shadow=0;dashed=0;align=center;html=1;verticalAlign=top;shape=mxgraph.electrical.opto_electronics.7_segment_display_with_dp;pointerEvents=1;fillColor=#FF0000;strokeColor=none;aspect=fixed;" vertex="1" parent="1">
          <mxGeometry x="615.0000000000001" y="360" width="65.82" height="80" as="geometry" />
        </mxCell>
        <mxCell id="9wGQk3-cye2_xvNzmPNW-98" value="" style="endArrow=block;html=1;rounded=0;endFill=1;endSize=5;startSize=5;" edge="1" parent="1">
          <mxGeometry width="50" height="50" relative="1" as="geometry">
            <mxPoint y="497.5" as="sourcePoint" />
            <mxPoint x="30" y="497.5" as="targetPoint" />
          </mxGeometry>
        </mxCell>
        <mxCell id="9wGQk3-cye2_xvNzmPNW-99" value="SW_B(3:0)" style="text;html=1;align=left;verticalAlign=middle;whiteSpace=wrap;rounded=0;fontFamily=Courier New;fontSize=10;fillOpacity=100;spacing=2;spacingLeft=0;connectable=0;" vertex="1" parent="1">
          <mxGeometry x="-60" y="487" width="60" height="20" as="geometry" />
        </mxCell>
        <mxCell id="9wGQk3-cye2_xvNzmPNW-100" value="" style="endArrow=block;html=1;rounded=0;endFill=1;endSize=5;startSize=5;" edge="1" parent="1">
          <mxGeometry width="50" height="50" relative="1" as="geometry">
            <mxPoint x="0.40999999999996817" y="510" as="sourcePoint" />
            <mxPoint x="30.409999999999968" y="510" as="targetPoint" />
          </mxGeometry>
        </mxCell>
        <mxCell id="9wGQk3-cye2_xvNzmPNW-101" value="SW_A(3:0)" style="text;html=1;align=left;verticalAlign=middle;whiteSpace=wrap;rounded=0;fontFamily=Courier New;fontSize=10;fillOpacity=100;spacing=2;spacingLeft=0;connectable=0;" vertex="1" parent="1">
          <mxGeometry x="-60" y="500" width="59.59" height="20" as="geometry" />
        </mxCell>
        <mxCell id="9wGQk3-cye2_xvNzmPNW-102" value="" style="endArrow=none;html=1;rounded=0;startArrow=oval;startFill=1;endSize=4;startSize=4;" edge="1" parent="1">
          <mxGeometry width="50" height="50" relative="1" as="geometry">
            <mxPoint x="50" y="510" as="sourcePoint" />
            <mxPoint x="50" y="570" as="targetPoint" />
          </mxGeometry>
        </mxCell>
        <mxCell id="9wGQk3-cye2_xvNzmPNW-103" value="" style="endArrow=block;html=1;rounded=0;endFill=1;orthogonal=1;endSize=5;startSize=5;" edge="1" parent="1">
          <mxGeometry width="50" height="50" relative="1" as="geometry">
            <mxPoint x="50" y="570" as="sourcePoint" />
            <mxPoint x="540" y="570" as="targetPoint" />
          </mxGeometry>
        </mxCell>
        <mxCell id="9wGQk3-cye2_xvNzmPNW-104" value="LED_A(3:0)" style="text;html=1;align=left;verticalAlign=middle;whiteSpace=wrap;rounded=0;fontFamily=Courier New;fontSize=10;fillOpacity=100;spacing=2;spacingLeft=5;connectable=0;" vertex="1" parent="1">
          <mxGeometry x="540.41" y="560" width="70" height="20" as="geometry" />
        </mxCell>
        <mxCell id="9wGQk3-cye2_xvNzmPNW-105" value="adder_4bit.vhd" style="rounded=1;arcSize=10;align=left;verticalAlign=top;fontFamily=Courier New;absoluteArcSize=0;fillColor=none;points=[[0,0,0,0,0],[0,0.25,0,0,0],[0,0.5,0,0,0],[0,0.75,0,0,0],[0,1,0,0,0],[0.25,0,0,0,0],[0.25,1,0,0,0],[0.5,0,0,0,0],[0.5,1,0,0,0],[0.75,0,0,0,0],[0.75,1,0,0,0],[1,0,0,0,0],[1,0.25,0,0,0],[1,0.5,0,0,0],[1,0.75,0,0,0],[1,1,0,0,0]];connectable=0;snapToPoint=0;fixDash=0;metaEdit=0;autosize=0;fontSize=10;spacingLeft=5;labelBorderColor=none;spacingTop=0;spacing=2;labelBackgroundColor=none;whiteSpace=wrap;html=1;strokeWidth=1;shadow=0;glass=0;" vertex="1" parent="1">
          <mxGeometry x="140.40999999999997" y="430" width="100" height="100" as="geometry" />
        </mxCell>
        <mxCell id="9wGQk3-cye2_xvNzmPNW-106" value="b" style="text;html=1;align=left;verticalAlign=middle;whiteSpace=wrap;rounded=0;fontFamily=Courier New;fontSize=10;fillOpacity=100;spacingLeft=5;connectable=0;" vertex="1" parent="1">
          <mxGeometry x="139.76999999999998" y="480" width="30.64" height="20" as="geometry" />
        </mxCell>
        <mxCell id="9wGQk3-cye2_xvNzmPNW-107" value="c_in" style="text;html=1;align=left;verticalAlign=middle;whiteSpace=wrap;rounded=0;fontFamily=Courier New;fontSize=10;fillOpacity=100;spacing=2;spacingLeft=5;connectable=0;" vertex="1" parent="1">
          <mxGeometry x="139.76999999999998" y="460" width="30.64" height="20" as="geometry" />
        </mxCell>
        <mxCell id="9wGQk3-cye2_xvNzmPNW-108" value="" style="endArrow=block;html=1;rounded=0;endFill=1;endSize=5;startSize=5;" edge="1" parent="1">
          <mxGeometry width="50" height="50" relative="1" as="geometry">
            <mxPoint x="30" y="470" as="sourcePoint" />
            <mxPoint x="140" y="470" as="targetPoint" />
          </mxGeometry>
        </mxCell>
        <mxCell id="9wGQk3-cye2_xvNzmPNW-109" value="" style="endArrow=block;html=1;rounded=0;endFill=1;endSize=5;startSize=5;" edge="1" parent="1">
          <mxGeometry width="50" height="50" relative="1" as="geometry">
            <mxPoint x="130" y="490" as="sourcePoint" />
            <mxPoint x="140" y="490" as="targetPoint" />
          </mxGeometry>
        </mxCell>
        <mxCell id="9wGQk3-cye2_xvNzmPNW-110" value="c_out" style="text;html=1;align=right;verticalAlign=middle;whiteSpace=wrap;rounded=0;fontFamily=Courier New;fontSize=10;fillOpacity=100;spacing=2;spacingRight=5;connectable=0;" vertex="1" parent="1">
          <mxGeometry x="190.40999999999997" y="460" width="50" height="20" as="geometry" />
        </mxCell>
        <mxCell id="9wGQk3-cye2_xvNzmPNW-111" value="result" style="text;html=1;align=right;verticalAlign=middle;whiteSpace=wrap;rounded=0;fontFamily=Courier New;fontSize=10;fillOpacity=100;spacing=2;spacingRight=5;connectable=0;" vertex="1" parent="1">
          <mxGeometry x="190.40999999999997" y="480" width="50" height="20" as="geometry" />
        </mxCell>
        <mxCell id="9wGQk3-cye2_xvNzmPNW-112" value="a" style="text;html=1;align=left;verticalAlign=middle;whiteSpace=wrap;rounded=0;fontFamily=Courier New;fontSize=10;fillOpacity=100;spacingLeft=5;connectable=0;" vertex="1" parent="1">
          <mxGeometry x="139.76999999999998" y="500" width="30.64" height="20" as="geometry" />
        </mxCell>
        <mxCell id="9wGQk3-cye2_xvNzmPNW-113" value="" style="endArrow=block;html=1;rounded=0;endFill=1;endSize=5;startSize=5;" edge="1" parent="1">
          <mxGeometry width="50" height="50" relative="1" as="geometry">
            <mxPoint x="30" y="510" as="sourcePoint" />
            <mxPoint x="140" y="510" as="targetPoint" />
          </mxGeometry>
        </mxCell>
        <mxCell id="9wGQk3-cye2_xvNzmPNW-114" value="" style="endArrow=none;html=1;rounded=0;startArrow=none;startFill=0;endSize=4;startSize=4;" edge="1" parent="1">
          <mxGeometry width="50" height="50" relative="1" as="geometry">
            <mxPoint x="260.40999999999997" y="420" as="sourcePoint" />
            <mxPoint x="260.40999999999997" y="490" as="targetPoint" />
          </mxGeometry>
        </mxCell>
        <mxCell id="9wGQk3-cye2_xvNzmPNW-115" value="" style="endArrow=none;html=1;rounded=0;endFill=0;endSize=5;startSize=5;" edge="1" parent="1">
          <mxGeometry width="50" height="50" relative="1" as="geometry">
            <mxPoint x="240.40999999999997" y="490" as="sourcePoint" />
            <mxPoint x="260.40999999999997" y="490" as="targetPoint" />
          </mxGeometry>
        </mxCell>
        <mxCell id="9wGQk3-cye2_xvNzmPNW-116" value="" style="endArrow=block;html=1;rounded=0;endFill=1;orthogonal=1;endSize=5;startSize=5;" edge="1" parent="1">
          <mxGeometry width="50" height="50" relative="1" as="geometry">
            <mxPoint x="240.40999999999997" y="470" as="sourcePoint" />
            <mxPoint x="540.41" y="470" as="targetPoint" />
          </mxGeometry>
        </mxCell>
        <mxCell id="9wGQk3-cye2_xvNzmPNW-117" value="LED_RED" style="text;html=1;align=left;verticalAlign=middle;whiteSpace=wrap;rounded=0;fontFamily=Courier New;fontSize=10;fillOpacity=100;spacing=2;spacingLeft=5;connectable=0;" vertex="1" parent="1">
          <mxGeometry x="540.41" y="460" width="60" height="20" as="geometry" />
        </mxCell>
        <mxCell id="9wGQk3-cye2_xvNzmPNW-118" value="" style="verticalLabelPosition=bottom;shadow=0;dashed=0;align=center;html=1;verticalAlign=top;shape=mxgraph.electrical.opto_electronics.led_2;pointerEvents=1;aspect=fixed;connectable=0;fillColor=#00FF00;" vertex="1" parent="1">
          <mxGeometry x="621.41" y="530" width="50" height="35" as="geometry" />
        </mxCell>
        <mxCell id="9wGQk3-cye2_xvNzmPNW-119" value="" style="verticalLabelPosition=bottom;shadow=0;dashed=0;align=center;html=1;verticalAlign=top;shape=mxgraph.electrical.opto_electronics.led_2;pointerEvents=1;aspect=fixed;connectable=0;fillColor=#FF0000;" vertex="1" parent="1">
          <mxGeometry x="622.41" y="470" width="50" height="35" as="geometry" />
        </mxCell>
        <mxCell id="9wGQk3-cye2_xvNzmPNW-121" value="" style="verticalLabelPosition=bottom;shadow=0;dashed=0;align=center;html=1;verticalAlign=top;shape=mxgraph.electrical.logic_gates.logic_gate;operation=xor;aspect=fixed;connectable=0;" vertex="1" parent="1">
          <mxGeometry x="80" y="475" width="50" height="30" as="geometry" />
        </mxCell>
        <mxCell id="9wGQk3-cye2_xvNzmPNW-122" value="" style="endArrow=none;html=1;rounded=0;endFill=0;endSize=5;startSize=5;" edge="1" parent="1">
          <mxGeometry width="50" height="50" relative="1" as="geometry">
            <mxPoint x="30" y="497.5" as="sourcePoint" />
            <mxPoint x="80" y="497.5" as="targetPoint" />
          </mxGeometry>
        </mxCell>
        <mxCell id="9wGQk3-cye2_xvNzmPNW-123" value="" style="endArrow=none;html=1;rounded=0;endFill=0;endSize=5;startSize=5;" edge="1" parent="1">
          <mxGeometry width="50" height="50" relative="1" as="geometry">
            <mxPoint x="70" y="482.5" as="sourcePoint" />
            <mxPoint x="80" y="482.5" as="targetPoint" />
          </mxGeometry>
        </mxCell>
        <mxCell id="9wGQk3-cye2_xvNzmPNW-124" value="" style="endArrow=none;html=1;rounded=0;startArrow=oval;startFill=1;endSize=4;startSize=4;endFill=0;" edge="1" parent="1">
          <mxGeometry width="50" height="50" relative="1" as="geometry">
            <mxPoint x="70" y="470" as="sourcePoint" />
            <mxPoint x="70" y="482.5" as="targetPoint" />
          </mxGeometry>
        </mxCell>
        <mxCell id="9wGQk3-cye2_xvNzmPNW-125" value="" style="endArrow=block;html=1;rounded=0;endFill=1;endSize=5;startSize=5;" edge="1" parent="1">
          <mxGeometry width="50" height="50" relative="1" as="geometry">
            <mxPoint x="-30" y="470" as="sourcePoint" />
            <mxPoint x="30" y="470" as="targetPoint" />
          </mxGeometry>
        </mxCell>
        <mxCell id="9wGQk3-cye2_xvNzmPNW-126" value="SW_C" style="text;html=1;align=left;verticalAlign=middle;whiteSpace=wrap;rounded=0;fontFamily=Courier New;fontSize=10;fillOpacity=100;spacing=2;spacingLeft=0;connectable=0;" vertex="1" parent="1">
          <mxGeometry x="-60" y="460" width="40" height="20" as="geometry" />
        </mxCell>
        <mxCell id="9wGQk3-cye2_xvNzmPNW-127" value="top_level.vhd" style="rounded=1;arcSize=3;whiteSpace=wrap;html=1;align=left;verticalAlign=top;fontFamily=Courier New;absoluteArcSize=0;fillColor=none;fontSize=10;spacingLeft=5;connectable=0;imageHeight=24;" vertex="1" parent="1">
          <mxGeometry x="1800" y="140" width="140" height="110" as="geometry" />
        </mxCell>
        <mxCell id="9wGQk3-cye2_xvNzmPNW-131" value="" style="verticalLabelPosition=bottom;shadow=0;dashed=0;align=center;html=1;verticalAlign=top;shape=mxgraph.electrical.logic_gates.logic_gate;operation=xor;aspect=fixed;connectable=0;" vertex="1" parent="1">
          <mxGeometry x="1815" y="175" width="50" height="30" as="geometry" />
        </mxCell>
        <mxCell id="9wGQk3-cye2_xvNzmPNW-137" value="ctrl" style="text;html=1;align=left;verticalAlign=middle;whiteSpace=wrap;rounded=0;fontFamily=Courier New;fontSize=10;fillOpacity=100;spacing=2;spacingLeft=0;connectable=0;" vertex="1" parent="1">
          <mxGeometry x="1740" y="172.5" width="30" height="20" as="geometry" />
        </mxCell>
        <mxCell id="9wGQk3-cye2_xvNzmPNW-138" value="a" style="text;html=1;align=left;verticalAlign=middle;whiteSpace=wrap;rounded=0;fontFamily=Courier New;fontSize=10;fillOpacity=100;spacing=2;spacingLeft=0;connectable=0;" vertex="1" parent="1">
          <mxGeometry x="1740" y="187.5" width="30" height="20" as="geometry" />
        </mxCell>
        <mxCell id="9wGQk3-cye2_xvNzmPNW-139" value="b" style="text;html=1;align=left;verticalAlign=middle;whiteSpace=wrap;rounded=0;fontFamily=Courier New;fontSize=10;fillOpacity=100;spacing=2;spacingLeft=0;connectable=0;" vertex="1" parent="1">
          <mxGeometry x="1740" y="207.5" width="30" height="20" as="geometry" />
        </mxCell>
        <mxCell id="9wGQk3-cye2_xvNzmPNW-144" value="" style="endArrow=none;html=1;rounded=0;endFill=0;endSize=5;startSize=5;" edge="1" parent="1">
          <mxGeometry width="50" height="50" relative="1" as="geometry">
            <mxPoint x="1800" y="182.5" as="sourcePoint" />
            <mxPoint x="1815" y="182.5" as="targetPoint" />
          </mxGeometry>
        </mxCell>
        <mxCell id="9wGQk3-cye2_xvNzmPNW-145" value="" style="endArrow=none;html=1;rounded=0;endFill=0;endSize=5;startSize=5;" edge="1" parent="1">
          <mxGeometry width="50" height="50" relative="1" as="geometry">
            <mxPoint x="1800" y="197.5" as="sourcePoint" />
            <mxPoint x="1815" y="197.5" as="targetPoint" />
          </mxGeometry>
        </mxCell>
        <mxCell id="9wGQk3-cye2_xvNzmPNW-148" value="" style="endArrow=none;html=1;rounded=0;endFill=0;endSize=5;startSize=5;" edge="1" parent="1">
          <mxGeometry width="50" height="50" relative="1" as="geometry">
            <mxPoint x="1800" y="217.5" as="sourcePoint" />
            <mxPoint x="1872" y="217.5" as="targetPoint" />
          </mxGeometry>
        </mxCell>
        <mxCell id="9wGQk3-cye2_xvNzmPNW-150" value="" style="endArrow=none;html=1;rounded=0;endFill=0;endSize=5;startSize=5;" edge="1" parent="1">
          <mxGeometry width="50" height="50" relative="1" as="geometry">
            <mxPoint x="1865" y="190" as="sourcePoint" />
            <mxPoint x="1870" y="190" as="targetPoint" />
          </mxGeometry>
        </mxCell>
        <mxCell id="9wGQk3-cye2_xvNzmPNW-151" value="" style="endArrow=none;html=1;rounded=0;endFill=0;endSize=5;startSize=5;" edge="1" parent="1">
          <mxGeometry width="50" height="50" relative="1" as="geometry">
            <mxPoint x="1870" y="202.5" as="sourcePoint" />
            <mxPoint x="1880" y="202.5" as="targetPoint" />
          </mxGeometry>
        </mxCell>
        <mxCell id="9wGQk3-cye2_xvNzmPNW-152" value="" style="endArrow=none;html=1;rounded=0;endFill=0;endSize=5;startSize=5;" edge="1" parent="1">
          <mxGeometry width="50" height="50" relative="1" as="geometry">
            <mxPoint x="1870" y="190" as="sourcePoint" />
            <mxPoint x="1870" y="202.5" as="targetPoint" />
          </mxGeometry>
        </mxCell>
        <mxCell id="9wGQk3-cye2_xvNzmPNW-155" value="" style="endArrow=none;html=1;rounded=0;endFill=0;endSize=5;startSize=5;" edge="1" parent="1">
          <mxGeometry width="50" height="50" relative="1" as="geometry">
            <mxPoint x="1870" y="217.5" as="sourcePoint" />
            <mxPoint x="1880" y="217.5" as="targetPoint" />
          </mxGeometry>
        </mxCell>
        <mxCell id="9wGQk3-cye2_xvNzmPNW-157" value="" style="endArrow=block;html=1;rounded=0;endFill=1;orthogonal=1;endSize=5;startSize=5;" edge="1" parent="1">
          <mxGeometry width="50" height="50" relative="1" as="geometry">
            <mxPoint x="1930" y="210" as="sourcePoint" />
            <mxPoint x="1970" y="210" as="targetPoint" />
          </mxGeometry>
        </mxCell>
        <mxCell id="9wGQk3-cye2_xvNzmPNW-158" value="y" style="text;html=1;align=left;verticalAlign=middle;whiteSpace=wrap;rounded=0;fontFamily=Courier New;fontSize=10;fillOpacity=100;spacing=2;spacingLeft=5;connectable=0;" vertex="1" parent="1">
          <mxGeometry x="1970" y="200" width="20" height="20" as="geometry" />
        </mxCell>
        <mxCell id="9wGQk3-cye2_xvNzmPNW-160" value="" style="endArrow=block;html=1;rounded=0;endFill=1;endSize=5;startSize=5;" edge="1" parent="1">
          <mxGeometry width="50" height="50" relative="1" as="geometry">
            <mxPoint x="1755" y="217.5" as="sourcePoint" />
            <mxPoint x="1800" y="217.5" as="targetPoint" />
          </mxGeometry>
        </mxCell>
        <mxCell id="9wGQk3-cye2_xvNzmPNW-161" value="" style="endArrow=block;html=1;rounded=0;endFill=1;endSize=5;startSize=5;" edge="1" parent="1">
          <mxGeometry width="50" height="50" relative="1" as="geometry">
            <mxPoint x="1755" y="197.5" as="sourcePoint" />
            <mxPoint x="1800" y="197.5" as="targetPoint" />
          </mxGeometry>
        </mxCell>
        <mxCell id="9wGQk3-cye2_xvNzmPNW-162" value="" style="endArrow=block;html=1;rounded=0;endFill=1;endSize=5;startSize=5;" edge="1" parent="1">
          <mxGeometry width="50" height="50" relative="1" as="geometry">
            <mxPoint x="1770" y="182.5" as="sourcePoint" />
            <mxPoint x="1800" y="182.5" as="targetPoint" />
          </mxGeometry>
        </mxCell>
        <mxCell id="9wGQk3-cye2_xvNzmPNW-163" value="sig_tmp" style="text;html=1;align=left;verticalAlign=middle;whiteSpace=wrap;rounded=0;fontFamily=Courier New;fontSize=10;fillOpacity=100;spacing=2;spacingLeft=0;connectable=0;" vertex="1" parent="1">
          <mxGeometry x="1855" y="170" width="55" height="20" as="geometry" />
        </mxCell>
        <mxCell id="9wGQk3-cye2_xvNzmPNW-164" value="" style="verticalLabelPosition=bottom;shadow=0;dashed=0;align=center;html=1;verticalAlign=top;shape=mxgraph.electrical.logic_gates.logic_gate;operation=xor;aspect=fixed;connectable=0;" vertex="1" parent="1">
          <mxGeometry x="1880" y="195" width="50" height="30" as="geometry" />
        </mxCell>
      </root>
    </mxGraphModel>
  </diagram>
</mxfile>
